G04*
G04 #@! TF.GenerationSoftware,Altium Limited,Altium Designer,22.0.2 (36)*
G04*
G04 Layer_Color=255*
%FSLAX44Y44*%
%MOMM*%
G71*
G04*
G04 #@! TF.SameCoordinates,7C54838C-0965-49BE-8F7A-A0EB361EFC81*
G04*
G04*
G04 #@! TF.FilePolarity,Positive*
G04*
G01*
G75*
%ADD49P,1.7318X8X292.5*%
%ADD50P,1.7318X8X202.5*%
%ADD51R,0.4500X1.6000*%
%ADD52R,7.2000X0.4500*%
%ADD53R,6.4000X0.4500*%
%ADD54R,5.6000X0.4500*%
%ADD55R,4.8000X0.4500*%
%ADD56R,4.0000X0.4500*%
%ADD57R,3.2000X0.4500*%
%ADD58R,2.4000X0.4500*%
%ADD59R,1.6000X0.4500*%
%ADD60R,8.0000X0.4500*%
%ADD61R,0.4500X7.2000*%
%ADD62R,0.4500X6.4000*%
%ADD63R,0.4500X5.6000*%
%ADD64R,0.4500X4.8000*%
%ADD65R,0.4500X4.0000*%
%ADD66R,0.4500X3.2000*%
%ADD67R,0.4500X2.4000*%
G04:AMPARAMS|DCode=68|XSize=0.45mm|YSize=1.6mm|CornerRadius=0mm|HoleSize=0mm|Usage=FLASHONLY|Rotation=90.000|XOffset=0mm|YOffset=0mm|HoleType=Round|Shape=Octagon|*
%AMOCTAGOND68*
4,1,8,-0.8000,-0.1125,-0.8000,0.1125,-0.6875,0.2250,0.6875,0.2250,0.8000,0.1125,0.8000,-0.1125,0.6875,-0.2250,-0.6875,-0.2250,-0.8000,-0.1125,0.0*
%
%ADD68OCTAGOND68*%

%ADD69R,0.4500X8.0000*%
D49*
X397300Y142200D02*
D03*
Y91400D02*
D03*
Y116800D02*
D03*
Y167600D02*
D03*
Y193000D02*
D03*
Y218400D02*
D03*
Y243800D02*
D03*
Y269200D02*
D03*
Y294600D02*
D03*
X372000D02*
D03*
Y269200D02*
D03*
Y243800D02*
D03*
Y218400D02*
D03*
Y167600D02*
D03*
Y193000D02*
D03*
Y116800D02*
D03*
Y142200D02*
D03*
Y91400D02*
D03*
X16700Y243800D02*
D03*
X16700Y294600D02*
D03*
X16700Y269200D02*
D03*
X16700Y218400D02*
D03*
Y193000D02*
D03*
X16700Y167600D02*
D03*
Y142200D02*
D03*
X16700Y116800D02*
D03*
X16700Y91400D02*
D03*
X42000D02*
D03*
Y116800D02*
D03*
Y142200D02*
D03*
Y167600D02*
D03*
Y218400D02*
D03*
Y193000D02*
D03*
Y269200D02*
D03*
Y243800D02*
D03*
Y294600D02*
D03*
X811300Y142200D02*
D03*
Y91400D02*
D03*
Y116800D02*
D03*
Y167600D02*
D03*
Y193000D02*
D03*
Y218400D02*
D03*
Y243800D02*
D03*
Y269200D02*
D03*
Y294600D02*
D03*
X786000D02*
D03*
Y269200D02*
D03*
Y243800D02*
D03*
Y218400D02*
D03*
Y167600D02*
D03*
Y193000D02*
D03*
Y116800D02*
D03*
Y142200D02*
D03*
Y91400D02*
D03*
X430700Y243800D02*
D03*
X430700Y294600D02*
D03*
X430700Y269200D02*
D03*
X430700Y218400D02*
D03*
Y193000D02*
D03*
X430700Y167600D02*
D03*
Y142200D02*
D03*
X430700Y116800D02*
D03*
X430700Y91400D02*
D03*
X456000D02*
D03*
Y116800D02*
D03*
Y142200D02*
D03*
Y167600D02*
D03*
Y218400D02*
D03*
Y193000D02*
D03*
Y269200D02*
D03*
Y243800D02*
D03*
Y294600D02*
D03*
X397300Y528200D02*
D03*
Y477400D02*
D03*
Y502800D02*
D03*
Y553600D02*
D03*
Y579000D02*
D03*
Y604400D02*
D03*
Y629800D02*
D03*
Y655200D02*
D03*
Y680600D02*
D03*
X372000D02*
D03*
Y655200D02*
D03*
Y629800D02*
D03*
Y604400D02*
D03*
Y553600D02*
D03*
Y579000D02*
D03*
Y502800D02*
D03*
Y528200D02*
D03*
Y477400D02*
D03*
X16700Y629800D02*
D03*
X16700Y680600D02*
D03*
X16700Y655200D02*
D03*
X16700Y604400D02*
D03*
Y579000D02*
D03*
X16700Y553600D02*
D03*
Y528200D02*
D03*
X16700Y502800D02*
D03*
X16700Y477400D02*
D03*
X42000D02*
D03*
Y502800D02*
D03*
Y528200D02*
D03*
Y553600D02*
D03*
Y604400D02*
D03*
Y579000D02*
D03*
Y655200D02*
D03*
Y629800D02*
D03*
Y680600D02*
D03*
X811300Y528200D02*
D03*
Y477400D02*
D03*
Y502800D02*
D03*
Y553600D02*
D03*
Y579000D02*
D03*
Y604400D02*
D03*
Y629800D02*
D03*
Y655200D02*
D03*
Y680600D02*
D03*
X786000D02*
D03*
Y655200D02*
D03*
Y629800D02*
D03*
Y604400D02*
D03*
Y553600D02*
D03*
Y579000D02*
D03*
Y502800D02*
D03*
Y528200D02*
D03*
Y477400D02*
D03*
X430700Y629800D02*
D03*
X430700Y680600D02*
D03*
X430700Y655200D02*
D03*
X430700Y604400D02*
D03*
Y579000D02*
D03*
X430700Y553600D02*
D03*
Y528200D02*
D03*
X430700Y502800D02*
D03*
X430700Y477400D02*
D03*
X456000D02*
D03*
Y502800D02*
D03*
Y528200D02*
D03*
Y553600D02*
D03*
Y604400D02*
D03*
Y579000D02*
D03*
Y655200D02*
D03*
Y629800D02*
D03*
Y680600D02*
D03*
D50*
X143500Y345400D02*
D03*
Y370700D02*
D03*
X67300Y345400D02*
D03*
X41900D02*
D03*
X92700Y345400D02*
D03*
X118100Y345400D02*
D03*
X16500D02*
D03*
X67300Y370700D02*
D03*
X41900D02*
D03*
X92700D02*
D03*
X118100D02*
D03*
X16500D02*
D03*
X270500Y345400D02*
D03*
X372100D02*
D03*
X245100D02*
D03*
X295900D02*
D03*
X321300Y345400D02*
D03*
X346700Y345400D02*
D03*
X397500Y370700D02*
D03*
X219700Y345400D02*
D03*
X397500D02*
D03*
X270500Y370700D02*
D03*
X372100D02*
D03*
X245100D02*
D03*
X295900D02*
D03*
X321300D02*
D03*
X346700D02*
D03*
X219700D02*
D03*
X194300Y345400D02*
D03*
X168900Y345400D02*
D03*
X194300Y370700D02*
D03*
X168900D02*
D03*
X270500Y40600D02*
D03*
Y15300D02*
D03*
X346700Y40600D02*
D03*
X372100D02*
D03*
X321300D02*
D03*
X295900D02*
D03*
X397500D02*
D03*
X346700Y15300D02*
D03*
X372100D02*
D03*
X321300D02*
D03*
X295900Y15300D02*
D03*
X397500Y15300D02*
D03*
X143500Y40600D02*
D03*
X41900D02*
D03*
X168900D02*
D03*
X118100D02*
D03*
X92700D02*
D03*
X67300D02*
D03*
X16500Y15300D02*
D03*
X194300Y40600D02*
D03*
X16500D02*
D03*
X143500Y15300D02*
D03*
X41900D02*
D03*
X168900D02*
D03*
X118100D02*
D03*
X92700D02*
D03*
X67300Y15300D02*
D03*
X194300D02*
D03*
X219700Y40600D02*
D03*
X245100D02*
D03*
X219700Y15300D02*
D03*
X245100D02*
D03*
X557500Y345400D02*
D03*
Y370700D02*
D03*
X481300Y345400D02*
D03*
X455900D02*
D03*
X506700Y345400D02*
D03*
X532100Y345400D02*
D03*
X430500D02*
D03*
X481300Y370700D02*
D03*
X455900D02*
D03*
X506700D02*
D03*
X532100D02*
D03*
X430500D02*
D03*
X684500Y345400D02*
D03*
X786100D02*
D03*
X659100D02*
D03*
X709900D02*
D03*
X735300Y345400D02*
D03*
X760700Y345400D02*
D03*
X811500Y370700D02*
D03*
X633700Y345400D02*
D03*
X811500D02*
D03*
X684500Y370700D02*
D03*
X786100D02*
D03*
X659100D02*
D03*
X709900D02*
D03*
X735300D02*
D03*
X760700D02*
D03*
X633700D02*
D03*
X608300Y345400D02*
D03*
X582900Y345400D02*
D03*
X608300Y370700D02*
D03*
X582900D02*
D03*
X684500Y40600D02*
D03*
Y15300D02*
D03*
X760700Y40600D02*
D03*
X786100D02*
D03*
X735300D02*
D03*
X709900D02*
D03*
X811500D02*
D03*
X760700Y15300D02*
D03*
X786100D02*
D03*
X735300D02*
D03*
X709900Y15300D02*
D03*
X811500Y15300D02*
D03*
X557500Y40600D02*
D03*
X455900D02*
D03*
X582900D02*
D03*
X532100D02*
D03*
X506700D02*
D03*
X481300D02*
D03*
X430500Y15300D02*
D03*
X608300Y40600D02*
D03*
X430500D02*
D03*
X557500Y15300D02*
D03*
X455900D02*
D03*
X582900D02*
D03*
X532100D02*
D03*
X506700D02*
D03*
X481300Y15300D02*
D03*
X608300D02*
D03*
X633700Y40600D02*
D03*
X659100D02*
D03*
X633700Y15300D02*
D03*
X659100D02*
D03*
X143500Y731400D02*
D03*
Y756700D02*
D03*
X67300Y731400D02*
D03*
X41900D02*
D03*
X92700Y731400D02*
D03*
X118100Y731400D02*
D03*
X16500D02*
D03*
X67300Y756700D02*
D03*
X41900D02*
D03*
X92700D02*
D03*
X118100D02*
D03*
X16500D02*
D03*
X270500Y731400D02*
D03*
X372100D02*
D03*
X245100D02*
D03*
X295900D02*
D03*
X321300Y731400D02*
D03*
X346700Y731400D02*
D03*
X397500Y756700D02*
D03*
X219700Y731400D02*
D03*
X397500D02*
D03*
X270500Y756700D02*
D03*
X372100D02*
D03*
X245100D02*
D03*
X295900D02*
D03*
X321300D02*
D03*
X346700D02*
D03*
X219700D02*
D03*
X194300Y731400D02*
D03*
X168900Y731400D02*
D03*
X194300Y756700D02*
D03*
X168900D02*
D03*
X270500Y426600D02*
D03*
Y401300D02*
D03*
X346700Y426600D02*
D03*
X372100D02*
D03*
X321300D02*
D03*
X295900D02*
D03*
X397500D02*
D03*
X346700Y401300D02*
D03*
X372100D02*
D03*
X321300D02*
D03*
X295900Y401300D02*
D03*
X397500Y401300D02*
D03*
X143500Y426600D02*
D03*
X41900D02*
D03*
X168900D02*
D03*
X118100D02*
D03*
X92700D02*
D03*
X67300D02*
D03*
X16500Y401300D02*
D03*
X194300Y426600D02*
D03*
X16500D02*
D03*
X143500Y401300D02*
D03*
X41900D02*
D03*
X168900D02*
D03*
X118100D02*
D03*
X92700D02*
D03*
X67300Y401300D02*
D03*
X194300D02*
D03*
X219700Y426600D02*
D03*
X245100D02*
D03*
X219700Y401300D02*
D03*
X245100D02*
D03*
X557500Y731400D02*
D03*
Y756700D02*
D03*
X481300Y731400D02*
D03*
X455900D02*
D03*
X506700Y731400D02*
D03*
X532100Y731400D02*
D03*
X430500D02*
D03*
X481300Y756700D02*
D03*
X455900D02*
D03*
X506700D02*
D03*
X532100D02*
D03*
X430500D02*
D03*
X684500Y731400D02*
D03*
X786100D02*
D03*
X659100D02*
D03*
X709900D02*
D03*
X735300Y731400D02*
D03*
X760700Y731400D02*
D03*
X811500Y756700D02*
D03*
X633700Y731400D02*
D03*
X811500D02*
D03*
X684500Y756700D02*
D03*
X786100D02*
D03*
X659100D02*
D03*
X709900D02*
D03*
X735300D02*
D03*
X760700D02*
D03*
X633700D02*
D03*
X608300Y731400D02*
D03*
X582900Y731400D02*
D03*
X608300Y756700D02*
D03*
X582900D02*
D03*
X684500Y426600D02*
D03*
Y401300D02*
D03*
X760700Y426600D02*
D03*
X786100D02*
D03*
X735300D02*
D03*
X709900D02*
D03*
X811500D02*
D03*
X760700Y401300D02*
D03*
X786100D02*
D03*
X735300D02*
D03*
X709900Y401300D02*
D03*
X811500Y401300D02*
D03*
X557500Y426600D02*
D03*
X455900D02*
D03*
X582900D02*
D03*
X532100D02*
D03*
X506700D02*
D03*
X481300D02*
D03*
X430500Y401300D02*
D03*
X608300Y426600D02*
D03*
X430500D02*
D03*
X557500Y401300D02*
D03*
X455900D02*
D03*
X582900D02*
D03*
X532100D02*
D03*
X506700D02*
D03*
X481300Y401300D02*
D03*
X608300D02*
D03*
X633700Y426600D02*
D03*
X659100D02*
D03*
X633700Y401300D02*
D03*
X659100D02*
D03*
D51*
X197755Y268000D02*
D03*
X189755D02*
D03*
X181755D02*
D03*
X173755D02*
D03*
X165755D02*
D03*
X157755D02*
D03*
X149755D02*
D03*
X141755D02*
D03*
X261755D02*
D03*
X253755D02*
D03*
X245755D02*
D03*
X237755D02*
D03*
X229755D02*
D03*
X221755D02*
D03*
X213755D02*
D03*
X205755D02*
D03*
X141755Y118000D02*
D03*
X611755Y268000D02*
D03*
X603755D02*
D03*
X595755D02*
D03*
X587755D02*
D03*
X579755D02*
D03*
X571755D02*
D03*
X563755D02*
D03*
X555755D02*
D03*
X675755D02*
D03*
X667755D02*
D03*
X659755D02*
D03*
X651755D02*
D03*
X643755D02*
D03*
X635755D02*
D03*
X627755D02*
D03*
X619755D02*
D03*
X555755Y118000D02*
D03*
X197755Y654000D02*
D03*
X189755D02*
D03*
X181755D02*
D03*
X173755D02*
D03*
X165755D02*
D03*
X157755D02*
D03*
X149755D02*
D03*
X141755D02*
D03*
X261755D02*
D03*
X253755D02*
D03*
X245755D02*
D03*
X237755D02*
D03*
X229755D02*
D03*
X221755D02*
D03*
X213755D02*
D03*
X205755D02*
D03*
X141755Y504000D02*
D03*
X611755Y654000D02*
D03*
X603755D02*
D03*
X595755D02*
D03*
X587755D02*
D03*
X579755D02*
D03*
X571755D02*
D03*
X563755D02*
D03*
X555755D02*
D03*
X675755D02*
D03*
X667755D02*
D03*
X659755D02*
D03*
X651755D02*
D03*
X643755D02*
D03*
X635755D02*
D03*
X627755D02*
D03*
X619755D02*
D03*
X555755Y504000D02*
D03*
D52*
X154755Y189000D02*
D03*
X568755D02*
D03*
X154755Y575000D02*
D03*
X568755D02*
D03*
D53*
X150755Y181000D02*
D03*
X564755D02*
D03*
X150755Y567000D02*
D03*
X564755D02*
D03*
D54*
X146755Y173000D02*
D03*
X560755D02*
D03*
X146755Y559000D02*
D03*
X560755D02*
D03*
D55*
X142755Y165000D02*
D03*
X556755D02*
D03*
X142755Y551000D02*
D03*
X556755D02*
D03*
D56*
X138755Y157000D02*
D03*
X552755D02*
D03*
X138755Y543000D02*
D03*
X552755D02*
D03*
D57*
X134755Y149000D02*
D03*
X548755D02*
D03*
X134755Y535000D02*
D03*
X548755D02*
D03*
D58*
X130755Y141000D02*
D03*
X544755D02*
D03*
X130755Y527000D02*
D03*
X544755D02*
D03*
D59*
X126755Y133000D02*
D03*
X276755D02*
D03*
Y141000D02*
D03*
Y149000D02*
D03*
Y157000D02*
D03*
Y165000D02*
D03*
Y173000D02*
D03*
Y181000D02*
D03*
Y189000D02*
D03*
Y245000D02*
D03*
Y237000D02*
D03*
Y229000D02*
D03*
Y221000D02*
D03*
Y213000D02*
D03*
Y205000D02*
D03*
Y197000D02*
D03*
X540755Y133000D02*
D03*
X690755D02*
D03*
Y141000D02*
D03*
Y149000D02*
D03*
Y157000D02*
D03*
Y165000D02*
D03*
Y173000D02*
D03*
Y181000D02*
D03*
Y189000D02*
D03*
Y245000D02*
D03*
Y237000D02*
D03*
Y229000D02*
D03*
Y221000D02*
D03*
Y213000D02*
D03*
Y205000D02*
D03*
Y197000D02*
D03*
X126755Y519000D02*
D03*
X276755D02*
D03*
Y527000D02*
D03*
Y535000D02*
D03*
Y543000D02*
D03*
Y551000D02*
D03*
Y559000D02*
D03*
Y567000D02*
D03*
Y575000D02*
D03*
Y631000D02*
D03*
Y623000D02*
D03*
Y615000D02*
D03*
Y607000D02*
D03*
Y599000D02*
D03*
Y591000D02*
D03*
Y583000D02*
D03*
X540755Y519000D02*
D03*
X690755D02*
D03*
Y527000D02*
D03*
Y535000D02*
D03*
Y543000D02*
D03*
Y551000D02*
D03*
Y559000D02*
D03*
Y567000D02*
D03*
Y575000D02*
D03*
Y631000D02*
D03*
Y623000D02*
D03*
Y615000D02*
D03*
Y607000D02*
D03*
Y599000D02*
D03*
Y591000D02*
D03*
Y583000D02*
D03*
D60*
X158755Y253000D02*
D03*
Y245000D02*
D03*
Y237000D02*
D03*
Y229000D02*
D03*
Y221000D02*
D03*
Y213000D02*
D03*
Y205000D02*
D03*
Y197000D02*
D03*
X572755Y253000D02*
D03*
Y245000D02*
D03*
Y237000D02*
D03*
Y229000D02*
D03*
Y221000D02*
D03*
Y213000D02*
D03*
Y205000D02*
D03*
Y197000D02*
D03*
X158755Y639000D02*
D03*
Y631000D02*
D03*
Y623000D02*
D03*
Y615000D02*
D03*
Y607000D02*
D03*
Y599000D02*
D03*
Y591000D02*
D03*
Y583000D02*
D03*
X572755Y639000D02*
D03*
Y631000D02*
D03*
Y623000D02*
D03*
Y615000D02*
D03*
Y607000D02*
D03*
Y599000D02*
D03*
Y591000D02*
D03*
Y583000D02*
D03*
D61*
X197755Y146000D02*
D03*
X611755D02*
D03*
X197755Y532000D02*
D03*
X611755D02*
D03*
D62*
X189755Y142000D02*
D03*
X603755D02*
D03*
X189755Y528000D02*
D03*
X603755D02*
D03*
D63*
X181755Y138000D02*
D03*
X595755D02*
D03*
X181755Y524000D02*
D03*
X595755D02*
D03*
D64*
X173755Y134000D02*
D03*
X587755D02*
D03*
X173755Y520000D02*
D03*
X587755D02*
D03*
D65*
X165755Y130000D02*
D03*
X579755D02*
D03*
X165755Y516000D02*
D03*
X579755D02*
D03*
D66*
X157755Y126000D02*
D03*
X571755D02*
D03*
X157755Y512000D02*
D03*
X571755D02*
D03*
D67*
X149755Y122000D02*
D03*
X563755D02*
D03*
X149755Y508000D02*
D03*
X563755D02*
D03*
D68*
X276755Y253000D02*
D03*
X690755D02*
D03*
X276755Y639000D02*
D03*
X690755D02*
D03*
D69*
X261755Y150000D02*
D03*
X253755D02*
D03*
X245755D02*
D03*
X237755D02*
D03*
X229755D02*
D03*
X221755D02*
D03*
X213755D02*
D03*
X205755D02*
D03*
X675755D02*
D03*
X667755D02*
D03*
X659755D02*
D03*
X651755D02*
D03*
X643755D02*
D03*
X635755D02*
D03*
X627755D02*
D03*
X619755D02*
D03*
X261755Y536000D02*
D03*
X253755D02*
D03*
X245755D02*
D03*
X237755D02*
D03*
X229755D02*
D03*
X221755D02*
D03*
X213755D02*
D03*
X205755D02*
D03*
X675755D02*
D03*
X667755D02*
D03*
X659755D02*
D03*
X651755D02*
D03*
X643755D02*
D03*
X635755D02*
D03*
X627755D02*
D03*
X619755D02*
D03*
M02*
