G04*
G04 #@! TF.GenerationSoftware,Altium Limited,Altium Designer,22.0.2 (36)*
G04*
G04 Layer_Physical_Order=1*
G04 Layer_Color=255*
%FSLAX44Y44*%
%MOMM*%
G71*
G04*
G04 #@! TF.SameCoordinates,7C54838C-0965-49BE-8F7A-A0EB361EFC81*
G04*
G04*
G04 #@! TF.FilePolarity,Positive*
G04*
G01*
G75*
%ADD10R,7.0000X0.2800*%
%ADD11R,7.5000X0.2800*%
%ADD12R,0.2800X4.0500*%
%ADD13R,0.2800X4.5500*%
%ADD14R,0.2800X6.5000*%
%ADD15R,1.5600X0.2800*%
%ADD16R,0.2800X10.5600*%
%ADD17R,0.2800X10.0000*%
%ADD18R,0.2800X9.5000*%
%ADD19R,0.2800X9.0000*%
%ADD20R,0.2800X8.5000*%
%ADD21R,0.2800X8.0000*%
%ADD22R,0.2800X7.5000*%
%ADD23R,0.2800X7.0000*%
%ADD24R,0.2800X6.0000*%
%ADD25R,0.2800X5.5000*%
%ADD26R,0.2800X5.0500*%
%ADD27R,0.2800X3.5500*%
%ADD28R,0.2800X3.0500*%
%ADD29R,0.2800X2.5500*%
%ADD30R,0.2800X2.0500*%
%ADD31R,2.0500X0.2800*%
%ADD32R,2.5500X0.2800*%
%ADD33R,3.0500X0.2800*%
%ADD34R,3.5500X0.2800*%
%ADD35R,4.0500X0.2800*%
%ADD36R,4.5500X0.2800*%
%ADD37R,5.0500X0.2800*%
%ADD38R,5.5000X0.2800*%
%ADD39R,6.0000X0.2800*%
%ADD40R,6.5000X0.2800*%
%ADD41R,8.0000X0.2800*%
%ADD42R,8.5000X0.2800*%
%ADD43R,9.0000X0.2800*%
%ADD44R,9.5000X0.2800*%
%ADD45R,10.0000X0.2800*%
%ADD46R,10.5600X0.2800*%
%ADD47R,0.2800X1.5600*%
%ADD48C,0.2540*%
%ADD49P,1.7318X8X292.5*%
%ADD50P,1.7318X8X202.5*%
D10*
X259792Y183000D02*
D03*
X673792D02*
D03*
X259792Y569000D02*
D03*
X673792D02*
D03*
D11*
X257292Y188000D02*
D03*
X671292D02*
D03*
X257292Y574000D02*
D03*
X671292D02*
D03*
D12*
X250193Y128650D02*
D03*
X664193D02*
D03*
X250193Y514650D02*
D03*
X664193D02*
D03*
D13*
X245193Y131150D02*
D03*
X659193D02*
D03*
X245193Y517150D02*
D03*
X659193D02*
D03*
D14*
X225193Y140900D02*
D03*
X639193D02*
D03*
X225193Y526900D02*
D03*
X639193D02*
D03*
D15*
X133392Y253000D02*
D03*
Y248000D02*
D03*
Y243000D02*
D03*
Y238000D02*
D03*
Y233000D02*
D03*
Y228000D02*
D03*
Y223000D02*
D03*
Y218000D02*
D03*
Y213000D02*
D03*
Y208000D02*
D03*
Y203000D02*
D03*
Y198000D02*
D03*
Y193000D02*
D03*
Y188000D02*
D03*
Y183000D02*
D03*
Y178000D02*
D03*
Y173000D02*
D03*
Y168000D02*
D03*
Y163000D02*
D03*
Y158000D02*
D03*
Y153000D02*
D03*
Y148000D02*
D03*
Y143000D02*
D03*
Y138000D02*
D03*
Y133000D02*
D03*
X547393Y253000D02*
D03*
Y248000D02*
D03*
Y243000D02*
D03*
Y238000D02*
D03*
Y233000D02*
D03*
Y228000D02*
D03*
Y223000D02*
D03*
Y218000D02*
D03*
Y213000D02*
D03*
Y208000D02*
D03*
Y203000D02*
D03*
Y198000D02*
D03*
Y193000D02*
D03*
Y188000D02*
D03*
Y183000D02*
D03*
Y178000D02*
D03*
Y173000D02*
D03*
Y168000D02*
D03*
Y163000D02*
D03*
Y158000D02*
D03*
Y153000D02*
D03*
Y148000D02*
D03*
Y143000D02*
D03*
Y138000D02*
D03*
Y133000D02*
D03*
X133392Y639000D02*
D03*
Y634000D02*
D03*
Y629000D02*
D03*
Y624000D02*
D03*
Y619000D02*
D03*
Y614000D02*
D03*
Y609000D02*
D03*
Y604000D02*
D03*
Y599000D02*
D03*
Y594000D02*
D03*
Y589000D02*
D03*
Y584000D02*
D03*
Y579000D02*
D03*
Y574000D02*
D03*
Y569000D02*
D03*
Y564000D02*
D03*
Y559000D02*
D03*
Y554000D02*
D03*
Y549000D02*
D03*
Y544000D02*
D03*
Y539000D02*
D03*
Y534000D02*
D03*
Y529000D02*
D03*
Y524000D02*
D03*
Y519000D02*
D03*
X547393Y639000D02*
D03*
Y634000D02*
D03*
Y629000D02*
D03*
Y624000D02*
D03*
Y619000D02*
D03*
Y614000D02*
D03*
Y609000D02*
D03*
Y604000D02*
D03*
Y599000D02*
D03*
Y594000D02*
D03*
Y589000D02*
D03*
Y584000D02*
D03*
Y579000D02*
D03*
Y574000D02*
D03*
Y569000D02*
D03*
Y564000D02*
D03*
Y559000D02*
D03*
Y554000D02*
D03*
Y549000D02*
D03*
Y544000D02*
D03*
Y539000D02*
D03*
Y534000D02*
D03*
Y529000D02*
D03*
Y524000D02*
D03*
Y519000D02*
D03*
D16*
X160193Y161200D02*
D03*
X165193D02*
D03*
X170193D02*
D03*
X175193D02*
D03*
X180193D02*
D03*
X185193D02*
D03*
X150192D02*
D03*
X155192D02*
D03*
X574193D02*
D03*
X579193D02*
D03*
X584193D02*
D03*
X589193D02*
D03*
X594193D02*
D03*
X599193D02*
D03*
X564193D02*
D03*
X569193D02*
D03*
X160193Y547200D02*
D03*
X165193D02*
D03*
X170193D02*
D03*
X175193D02*
D03*
X180193D02*
D03*
X185193D02*
D03*
X150192D02*
D03*
X155192D02*
D03*
X574193D02*
D03*
X579193D02*
D03*
X584193D02*
D03*
X589193D02*
D03*
X594193D02*
D03*
X599193D02*
D03*
X564193D02*
D03*
X569193D02*
D03*
D17*
X190193Y158400D02*
D03*
X604193D02*
D03*
X190193Y544400D02*
D03*
X604193D02*
D03*
D18*
X195193Y155900D02*
D03*
X609193D02*
D03*
X195193Y541900D02*
D03*
X609193D02*
D03*
D19*
X200193Y153400D02*
D03*
X614193D02*
D03*
X200193Y539400D02*
D03*
X614193D02*
D03*
D20*
X205193Y150900D02*
D03*
X619193D02*
D03*
X205193Y536900D02*
D03*
X619193D02*
D03*
D21*
X210193Y148400D02*
D03*
X624193D02*
D03*
X210193Y534400D02*
D03*
X624193D02*
D03*
D22*
X215193Y145900D02*
D03*
X629193D02*
D03*
X215193Y531900D02*
D03*
X629193D02*
D03*
D23*
X220193Y143400D02*
D03*
X634193D02*
D03*
X220193Y529400D02*
D03*
X634193D02*
D03*
D24*
X230193Y138400D02*
D03*
X644193D02*
D03*
X230193Y524400D02*
D03*
X644193D02*
D03*
D25*
X235193Y135900D02*
D03*
X649193D02*
D03*
X235193Y521900D02*
D03*
X649193D02*
D03*
D26*
X240193Y133650D02*
D03*
X654193D02*
D03*
X240193Y519650D02*
D03*
X654193D02*
D03*
D27*
X255193Y126150D02*
D03*
X669193D02*
D03*
X255193Y512150D02*
D03*
X669193D02*
D03*
D28*
X260193Y123650D02*
D03*
X674193D02*
D03*
X260193Y509650D02*
D03*
X674193D02*
D03*
D29*
X265193Y121150D02*
D03*
X679193D02*
D03*
X265193Y507150D02*
D03*
X679193D02*
D03*
D30*
X270193Y118650D02*
D03*
X684193D02*
D03*
X270193Y504650D02*
D03*
X684193D02*
D03*
D31*
X284543Y133000D02*
D03*
X698542D02*
D03*
X284543Y519000D02*
D03*
X698542D02*
D03*
D32*
X282043Y138000D02*
D03*
X696042D02*
D03*
X282043Y524000D02*
D03*
X696042D02*
D03*
D33*
X279543Y143000D02*
D03*
X693542D02*
D03*
X279543Y529000D02*
D03*
X693542D02*
D03*
D34*
X277043Y148000D02*
D03*
X691042D02*
D03*
X277043Y534000D02*
D03*
X691042D02*
D03*
D35*
X274543Y153000D02*
D03*
X688542D02*
D03*
X274543Y539000D02*
D03*
X688542D02*
D03*
D36*
X272043Y158000D02*
D03*
X686042D02*
D03*
X272043Y544000D02*
D03*
X686042D02*
D03*
D37*
X269543Y163000D02*
D03*
X683542D02*
D03*
X269543Y549000D02*
D03*
X683542D02*
D03*
D38*
X267292Y168000D02*
D03*
X681292D02*
D03*
X267292Y554000D02*
D03*
X681292D02*
D03*
D39*
X264792Y173000D02*
D03*
X678792D02*
D03*
X264792Y559000D02*
D03*
X678792D02*
D03*
D40*
X262292Y178000D02*
D03*
X676292D02*
D03*
X262292Y564000D02*
D03*
X676292D02*
D03*
D41*
X254792Y193000D02*
D03*
X668792D02*
D03*
X254792Y579000D02*
D03*
X668792D02*
D03*
D42*
X252292Y198000D02*
D03*
X666292D02*
D03*
X252292Y584000D02*
D03*
X666292D02*
D03*
D43*
X249792Y203000D02*
D03*
X663792D02*
D03*
X249792Y589000D02*
D03*
X663792D02*
D03*
D44*
X247292Y208000D02*
D03*
X661292D02*
D03*
X247292Y594000D02*
D03*
X661292D02*
D03*
D45*
X244792Y213000D02*
D03*
X658792D02*
D03*
X244792Y599000D02*
D03*
X658792D02*
D03*
D46*
X241992Y218000D02*
D03*
Y223000D02*
D03*
Y228000D02*
D03*
Y233000D02*
D03*
Y238000D02*
D03*
Y243000D02*
D03*
Y248000D02*
D03*
Y253000D02*
D03*
X655993Y218000D02*
D03*
Y223000D02*
D03*
Y228000D02*
D03*
Y233000D02*
D03*
Y238000D02*
D03*
Y243000D02*
D03*
Y248000D02*
D03*
Y253000D02*
D03*
X241992Y604000D02*
D03*
Y609000D02*
D03*
Y614000D02*
D03*
Y619000D02*
D03*
Y624000D02*
D03*
Y629000D02*
D03*
Y634000D02*
D03*
Y639000D02*
D03*
X655993Y604000D02*
D03*
Y609000D02*
D03*
Y614000D02*
D03*
Y619000D02*
D03*
Y624000D02*
D03*
Y629000D02*
D03*
Y634000D02*
D03*
Y639000D02*
D03*
D47*
X270193Y269800D02*
D03*
X265193D02*
D03*
X260193D02*
D03*
X255193D02*
D03*
X250193D02*
D03*
X245193D02*
D03*
X240193D02*
D03*
X235193D02*
D03*
X230193D02*
D03*
X225193D02*
D03*
X220193D02*
D03*
X215193D02*
D03*
X210193D02*
D03*
X205193D02*
D03*
X200193D02*
D03*
X195193D02*
D03*
X190193D02*
D03*
X185193D02*
D03*
X180193D02*
D03*
X175193D02*
D03*
X170193D02*
D03*
X165193D02*
D03*
X160193D02*
D03*
X155192D02*
D03*
X150192D02*
D03*
X684193D02*
D03*
X679193D02*
D03*
X674193D02*
D03*
X669193D02*
D03*
X664193D02*
D03*
X659193D02*
D03*
X654193D02*
D03*
X649193D02*
D03*
X644193D02*
D03*
X639193D02*
D03*
X634193D02*
D03*
X629193D02*
D03*
X624193D02*
D03*
X619193D02*
D03*
X614193D02*
D03*
X609193D02*
D03*
X604193D02*
D03*
X599193D02*
D03*
X594193D02*
D03*
X589193D02*
D03*
X584193D02*
D03*
X579193D02*
D03*
X574193D02*
D03*
X569193D02*
D03*
X564193D02*
D03*
X270193Y655800D02*
D03*
X265193D02*
D03*
X260193D02*
D03*
X255193D02*
D03*
X250193D02*
D03*
X245193D02*
D03*
X240193D02*
D03*
X235193D02*
D03*
X230193D02*
D03*
X225193D02*
D03*
X220193D02*
D03*
X215193D02*
D03*
X210193D02*
D03*
X205193D02*
D03*
X200193D02*
D03*
X195193D02*
D03*
X190193D02*
D03*
X185193D02*
D03*
X180193D02*
D03*
X175193D02*
D03*
X170193D02*
D03*
X165193D02*
D03*
X160193D02*
D03*
X155192D02*
D03*
X150192D02*
D03*
X684193D02*
D03*
X679193D02*
D03*
X674193D02*
D03*
X669193D02*
D03*
X664193D02*
D03*
X659193D02*
D03*
X654193D02*
D03*
X649193D02*
D03*
X644193D02*
D03*
X639193D02*
D03*
X634193D02*
D03*
X629193D02*
D03*
X624193D02*
D03*
X619193D02*
D03*
X614193D02*
D03*
X609193D02*
D03*
X604193D02*
D03*
X599193D02*
D03*
X594193D02*
D03*
X589193D02*
D03*
X584193D02*
D03*
X579193D02*
D03*
X574193D02*
D03*
X569193D02*
D03*
X564193D02*
D03*
D48*
X345700Y224700D02*
Y238700D01*
X324000Y203000D02*
X345700Y224700D01*
X249792Y203000D02*
X324000D01*
X320000Y208000D02*
X341160Y229160D01*
X247292Y208000D02*
X320000D01*
X341160Y229160D02*
Y240581D01*
X315000Y213000D02*
X336620Y234620D01*
X244792Y213000D02*
X315000D01*
X336620Y234620D02*
Y256620D01*
X312000Y218000D02*
X332080Y238080D01*
X241992Y218000D02*
X312000D01*
X332080Y238080D02*
Y263080D01*
X242122Y223130D02*
X309130D01*
X327540Y241540D02*
Y269699D01*
X309130Y223130D02*
X327540Y241540D01*
X242122Y228130D02*
X304130D01*
X323000Y247000D02*
Y271579D01*
X304130Y228130D02*
X323000Y247000D01*
X301000Y233000D02*
X318460Y250460D01*
X241992Y233000D02*
X301000D01*
X318460Y250460D02*
Y273460D01*
X304840Y257023D02*
Y300840D01*
X295947Y248130D02*
X304840Y257023D01*
X242122Y243130D02*
X297367D01*
X242122Y248130D02*
X295947D01*
X299130Y238130D02*
X313920Y252920D01*
X242122Y238130D02*
X299130D01*
X309380Y255143D02*
Y289100D01*
X297367Y243130D02*
X309380Y255143D01*
X313920Y252920D02*
Y287220D01*
X207000Y336421D02*
Y358000D01*
X194300Y342700D02*
Y345400D01*
X220193Y269800D02*
Y316807D01*
X194300Y342700D02*
X220193Y316807D01*
X207000Y336421D02*
X225193Y318228D01*
Y269800D02*
Y318228D01*
X215193Y269800D02*
Y307883D01*
X182000Y341076D02*
X215193Y307883D01*
X182000Y341076D02*
Y357600D01*
X92700Y345400D02*
X126670Y311430D01*
X163832D01*
X118100Y345400D02*
X142990Y320510D01*
X110350Y302350D02*
X160070D01*
X144950Y325050D02*
X169473D01*
X92879Y288000D02*
X152000D01*
X131000Y339000D02*
X144950Y325050D01*
X114586Y306890D02*
X161951D01*
X70469Y310410D02*
X92879Y288000D01*
X98265Y297810D02*
X158190D01*
X94300Y293000D02*
X155000D01*
X41900Y345400D02*
X94300Y293000D01*
X55000Y341076D02*
X98265Y297810D01*
X80000Y341475D02*
X114586Y306890D01*
X130906Y315970D02*
X165712D01*
X142990Y320510D02*
X167593D01*
X106000Y340876D02*
X130906Y315970D01*
X67300Y345400D02*
X110350Y302350D01*
X11000Y55000D02*
X22225D01*
X81840Y114615D01*
X5000Y49000D02*
X11000Y55000D01*
X80000Y46880D02*
X110000Y76879D01*
Y122000D01*
X121000Y133000D01*
X48000Y104000D02*
X72760Y128760D01*
X77300Y123300D02*
Y148300D01*
X90920Y108600D02*
Y141341D01*
X81840Y114615D02*
Y145260D01*
X72760Y128760D02*
Y151760D01*
X41900Y40600D02*
X95460Y94160D01*
Y139460D01*
X16500Y40600D02*
X86380Y110480D01*
Y143380D01*
X29000Y46680D02*
X90920Y108600D01*
X55000Y44924D02*
X100000Y89924D01*
X104540Y77840D02*
Y127540D01*
X49854Y95854D02*
X77300Y123300D01*
X67300Y40600D02*
X104540Y77840D01*
X100000Y89924D02*
Y131000D01*
X121000Y133000D02*
X133392D01*
X114870Y137870D02*
X133263D01*
X104540Y127540D02*
X114870Y137870D01*
X111870Y142870D02*
X133263D01*
X100000Y131000D02*
X111870Y142870D01*
X104000Y148000D02*
X133392D01*
X95460Y139460D02*
X104000Y148000D01*
X102579Y153000D02*
X133392D01*
X90920Y141341D02*
X102579Y153000D01*
X81840Y145260D02*
X99579Y163000D01*
X86380Y143380D02*
X101000Y158000D01*
X99579Y163000D02*
X133392D01*
X101000Y158000D02*
X133392D01*
X77300Y148300D02*
X97000Y168000D01*
X133392D01*
X49710Y95854D02*
X49854D01*
X42000Y91400D02*
X45256D01*
X49710Y95854D01*
X29300Y104000D02*
X48000D01*
X16700Y91400D02*
X29300Y104000D01*
X94000Y173000D02*
X133392D01*
X68220Y143020D02*
Y153641D01*
X92579Y178000D02*
X133392D01*
X72760Y151760D02*
X94000Y173000D01*
X68220Y153641D02*
X92579Y178000D01*
X63680Y147256D02*
Y155680D01*
X91000Y183000D02*
X133392D01*
X63680Y155680D02*
X91000Y183000D01*
X29900Y130000D02*
X46424D01*
X16700Y116800D02*
X29900Y130000D01*
X46424D02*
X63680Y147256D01*
X29500Y155000D02*
X46024D01*
X16700Y142200D02*
X29500Y155000D01*
X46024D02*
X84024Y193000D01*
X16700Y167600D02*
X29100Y180000D01*
X45624D02*
X68625Y203000D01*
X29100Y180000D02*
X45624D01*
X29700Y206000D02*
X48000D01*
X55000Y213000D02*
X133392D01*
X48000Y206000D02*
X55000Y213000D01*
X42000Y193000D02*
X57000Y208000D01*
X133392D01*
X16700Y193000D02*
X29700Y206000D01*
X48380Y231000D02*
X56379Y223000D01*
X29300Y231000D02*
X48380D01*
X16700Y218400D02*
X29300Y231000D01*
X29998Y257098D02*
X47682D01*
X16700Y243800D02*
X29998Y257098D01*
X48179Y282000D02*
X87179Y243000D01*
X29500Y282000D02*
X48179D01*
X16700Y269200D02*
X29500Y282000D01*
X16700Y294600D02*
X29100Y307000D01*
X48479D02*
X102349Y253130D01*
X29100Y307000D02*
X48479D01*
X102349Y253130D02*
X133263D01*
X29000Y341675D02*
Y358200D01*
X16500Y370700D02*
X29000Y358200D01*
Y341675D02*
X60265Y310410D01*
X41900Y370700D02*
X55000Y357600D01*
Y341076D02*
Y357600D01*
X67300Y370700D02*
X80000Y358000D01*
Y341475D02*
Y358000D01*
X106000Y340876D02*
Y357400D01*
X92700Y370700D02*
X106000Y357400D01*
X150192Y269800D02*
Y281512D01*
X16500Y345400D02*
X78900Y283000D01*
X148705D02*
X150192Y281512D01*
X78900Y283000D02*
X148705D01*
X155000Y293000D02*
X160063Y287938D01*
X152000Y288000D02*
X155063Y284937D01*
X159870Y334130D02*
X173234D01*
X157990Y329590D02*
X171354D01*
X143500Y344080D02*
X157990Y329590D01*
X156000Y338000D02*
X159870Y334130D01*
X155063Y269930D02*
Y284937D01*
X160063Y269930D02*
Y287938D01*
X143500Y344080D02*
Y345400D01*
X156000Y338000D02*
Y358200D01*
X180193Y269800D02*
Y295069D01*
X171354Y329590D02*
X200193Y300751D01*
X169473Y325050D02*
X195193Y299331D01*
X173234Y334130D02*
X205193Y302172D01*
X185193Y269800D02*
Y296490D01*
X205193Y269800D02*
Y302172D01*
X195193Y269800D02*
Y299331D01*
X163832Y311430D02*
X180193Y295069D01*
X190193Y269800D02*
Y297910D01*
X161951Y306890D02*
X175063Y293778D01*
X160070Y302350D02*
X170193Y292228D01*
X200193Y269800D02*
Y300751D01*
X170193Y269800D02*
Y292228D01*
X165712Y315970D02*
X185193Y296490D01*
X165193Y269800D02*
Y290807D01*
X158190Y297810D02*
X165193Y290807D01*
X175063Y269930D02*
Y293778D01*
X167593Y320510D02*
X190193Y297910D01*
X131000Y339000D02*
Y357800D01*
X118100Y370700D02*
X131000Y357800D01*
X143500Y370700D02*
X156000Y358200D01*
X168900Y370700D02*
X182000Y357600D01*
X194300Y370700D02*
X207000Y358000D01*
X219700Y370700D02*
X232000Y358400D01*
Y341875D02*
Y358400D01*
Y341875D02*
X235193Y338683D01*
X245193Y326513D02*
X258000Y339320D01*
X245100Y370700D02*
X258000Y357800D01*
Y339320D02*
Y357800D01*
X283000Y340000D02*
Y358200D01*
X255193Y269800D02*
Y312192D01*
X283000Y340000D01*
X270500Y370700D02*
X283000Y358200D01*
X321300Y344879D02*
Y345400D01*
X270193Y293772D02*
X321300Y344879D01*
X270193Y269800D02*
Y293772D01*
X309000Y339000D02*
Y357600D01*
X265193Y269800D02*
Y295193D01*
X309000Y339000D01*
X295900Y370700D02*
X309000Y357600D01*
X304840Y300840D02*
X346700Y342700D01*
Y345400D01*
X293522Y298643D02*
X334000Y339120D01*
X321300Y370700D02*
X334000Y358000D01*
Y339120D02*
Y358000D01*
X359000Y338721D02*
Y358400D01*
X346700Y370700D02*
X359000Y358400D01*
X309380Y289100D02*
X359000Y338721D01*
X362961Y311540D02*
X373540D01*
X327540Y269699D02*
X364841Y307000D01*
X323000Y271579D02*
X362961Y311540D01*
X385000Y340000D02*
Y357800D01*
X318460Y273460D02*
X385000Y340000D01*
X364841Y307000D02*
X377000D01*
X372100Y370700D02*
X385000Y357800D01*
X396000Y343900D02*
X397500Y345400D01*
X373540Y311540D02*
X396000Y334000D01*
Y343900D01*
X377000Y307000D02*
X409000Y339000D01*
X361678Y292678D02*
X370078D01*
X332080Y263080D02*
X361678Y292678D01*
X370078D02*
X372000Y294600D01*
X336620Y256620D02*
X362000Y282000D01*
X384700D01*
X397300Y294600D01*
X369780Y269200D02*
X372000D01*
X341160Y240581D02*
X369780Y269200D01*
X345700Y238700D02*
X363000Y256000D01*
X384100D01*
X397300Y269200D01*
X254792Y193000D02*
X328000D01*
X366000Y231000D01*
X384500D01*
X326200Y198000D02*
X372000Y243800D01*
X252292Y198000D02*
X326200D01*
X384500Y231000D02*
X397300Y243800D01*
X257292Y188000D02*
X341580D01*
X364119Y210540D01*
X364140D01*
X372000Y218400D01*
X366000Y206000D02*
X384900D01*
X259792Y183000D02*
X343000D01*
X366000Y206000D01*
X372000Y218400D02*
X372000D01*
X384900Y206000D02*
X397300Y218400D01*
X384300Y180000D02*
X397300Y193000D01*
X363000Y180000D02*
X384300D01*
X356000Y173000D02*
X363000Y180000D01*
X262292Y178000D02*
X354580D01*
X369580Y193000D01*
X264792Y173000D02*
X356000D01*
X369580Y193000D02*
X372000D01*
X384700Y155000D02*
X397300Y167600D01*
X365620Y155000D02*
X384700D01*
X357621Y163000D02*
X365620Y155000D01*
X385100Y130000D02*
X397300Y142200D01*
X365220Y130000D02*
X385100D01*
X342220Y153000D02*
X365220Y130000D01*
X365821Y104000D02*
X384500D01*
X326820Y143000D02*
X365821Y104000D01*
X384500D02*
X397300Y116800D01*
X385000Y27800D02*
Y48000D01*
X350380Y66620D02*
X372800D01*
X348499Y62080D02*
X370920D01*
X385000Y48000D01*
X397500Y40600D02*
Y41920D01*
X372800Y66620D02*
X397500Y41920D01*
X385000Y27800D02*
X397500Y15300D01*
X287540Y49880D02*
X295900Y41520D01*
Y40600D02*
Y41520D01*
X287540Y49880D02*
Y49880D01*
X270040Y67380D02*
X287540Y49880D01*
X252041Y67380D02*
X270040D01*
X283000Y28200D02*
Y48000D01*
X250160Y62840D02*
X268160D01*
X283000Y48000D01*
Y28200D02*
X295900Y15300D01*
X313540Y49880D02*
X321300Y42120D01*
X286961Y76460D02*
X313540Y49880D01*
X321300Y40600D02*
Y42120D01*
X313540Y49880D02*
Y49880D01*
X256540Y76460D02*
X286961D01*
X285080Y71920D02*
X309000Y48000D01*
X254080Y71920D02*
X285080D01*
X309000Y27600D02*
Y48000D01*
Y27600D02*
X321300Y15300D01*
X297525Y81000D02*
X334000Y44524D01*
Y28000D02*
X346700Y15300D01*
X334000Y28000D02*
Y44524D01*
X346619Y57540D02*
X355881D01*
X340720Y53000D02*
X354000D01*
X303640Y90080D02*
X340720Y53000D01*
X313300Y103700D02*
X350380Y66620D01*
X311420Y99160D02*
X348499Y62080D01*
X309539Y94620D02*
X346619Y57540D01*
X355881D02*
X372100Y41321D01*
X354000Y53000D02*
X359000Y48000D01*
X372100Y40600D02*
Y41321D01*
X359000Y28400D02*
Y48000D01*
Y28400D02*
X372100Y15300D01*
X108540Y59540D02*
X122540D01*
X150192Y87192D02*
Y161200D01*
X122540Y59540D02*
X150192Y87192D01*
X92700Y43700D02*
X108540Y59540D01*
X92700Y40600D02*
Y43700D01*
X105000Y28400D02*
X118100Y15300D01*
X105000Y28400D02*
Y47000D01*
X113000Y55000D01*
X125000D01*
X155192Y85192D01*
Y161200D01*
X5000Y26800D02*
X16500Y15300D01*
X5000Y26800D02*
Y49000D01*
X29000Y28200D02*
Y46680D01*
Y28200D02*
X41900Y15300D01*
X55000Y32000D02*
Y44924D01*
Y32000D02*
X63826Y23174D01*
X80000Y28000D02*
X92700Y15300D01*
X80000Y28000D02*
Y46880D01*
X131000Y47080D02*
X165193Y81272D01*
X131000Y28000D02*
Y47080D01*
Y28000D02*
X143500Y15500D01*
X156000Y28200D02*
Y46680D01*
Y28200D02*
X168900Y15300D01*
X156000Y46680D02*
X175193Y65872D01*
X180193Y54193D02*
Y161200D01*
X168900Y42900D02*
X180193Y54193D01*
X168900Y40600D02*
Y42900D01*
X182000Y47280D02*
X185193Y50472D01*
X182000Y27600D02*
Y47280D01*
Y27600D02*
X194300Y15300D01*
X200193Y63363D02*
Y153400D01*
Y63363D02*
X219700Y43856D01*
Y40600D02*
Y43856D01*
X195193Y59808D02*
X207000Y48000D01*
Y28000D02*
Y48000D01*
Y28000D02*
X219700Y15300D01*
X195193Y59808D02*
Y155900D01*
X205193Y76807D02*
Y150900D01*
Y76807D02*
X232000Y50000D01*
Y28400D02*
Y50000D01*
Y28400D02*
X245100Y15300D01*
X241626Y44074D02*
Y48374D01*
X210193Y79808D02*
X241626Y48374D01*
X210193Y79808D02*
Y148400D01*
X241626Y44074D02*
X245100Y40600D01*
X215193Y82808D02*
X244240Y53760D01*
X215193Y82808D02*
Y145900D01*
X244240Y53760D02*
X248564D01*
X220193Y84808D02*
X246700Y58300D01*
X252800D01*
X220193Y84808D02*
Y143400D01*
X235193Y90808D02*
Y135900D01*
X225193Y87808D02*
Y140900D01*
Y87808D02*
X250160Y62840D01*
X230193Y89228D02*
X252041Y67380D01*
X230193Y89228D02*
Y138400D01*
X235193Y90808D02*
X254080Y71920D01*
X240063Y92937D02*
Y133520D01*
Y92937D02*
X256540Y76460D01*
X255193Y97808D02*
Y126150D01*
X250193Y96387D02*
X261040Y85540D01*
X255193Y97808D02*
X262920Y90080D01*
X245322Y94677D02*
Y131020D01*
X259000Y81000D02*
X297525D01*
X261040Y85540D02*
X301760D01*
X245322Y94677D02*
X259000Y81000D01*
X250193Y96387D02*
Y128650D01*
X262920Y90080D02*
X303640D01*
X265322Y100677D02*
X266840Y99160D01*
X264960Y94620D02*
X309539D01*
X260322Y99257D02*
Y123520D01*
Y99257D02*
X264960Y94620D01*
X265322Y100677D02*
Y121020D01*
X266840Y99160D02*
X311420D01*
X270322Y107677D02*
X274300Y103700D01*
X270322Y107677D02*
Y118520D01*
X274300Y103700D02*
X313300D01*
X270193Y118650D02*
X270322Y118520D01*
X248564Y53760D02*
X258000Y44324D01*
Y27800D02*
Y44324D01*
Y27800D02*
X270500Y15300D01*
X252800Y58300D02*
X270500Y40600D01*
X397400Y370600D02*
X409000Y359000D01*
Y339000D02*
Y359000D01*
X60265Y310410D02*
X70469D01*
X155063Y269930D02*
X155192Y269800D01*
X133263Y253130D02*
X133392Y253000D01*
X160063Y269930D02*
X160193Y269800D01*
X175063Y269930D02*
X175193Y269800D01*
X210193D02*
Y304107D01*
X168900Y345400D02*
X210193Y304107D01*
X230193Y269800D02*
Y334907D01*
X219700Y345400D02*
X230193Y334907D01*
X235193Y269800D02*
Y338683D01*
X245100Y342144D02*
Y345400D01*
X240193Y269800D02*
Y337237D01*
X245100Y342144D01*
X245193Y269800D02*
Y326513D01*
X250193Y269800D02*
Y325093D01*
X270500Y345400D01*
X260193Y269800D02*
Y309692D01*
X295900Y345400D01*
X293522Y253130D02*
Y298643D01*
X293393Y253000D02*
X293522Y253130D01*
X241992Y253000D02*
X293393D01*
X241992Y248000D02*
X242122Y248130D01*
X313920Y287220D02*
X372100Y345400D01*
X241992Y243000D02*
X242122Y243130D01*
X241992Y238000D02*
X242122Y238130D01*
X241992Y228000D02*
X242122Y228130D01*
X241992Y223000D02*
X242122Y223130D01*
X371600Y168000D02*
X372000Y167600D01*
X267292Y168000D02*
X371600D01*
X269543Y163000D02*
X357621D01*
X356200Y158000D02*
X372000Y142200D01*
X272043Y158000D02*
X356200D01*
X274543Y153000D02*
X342220D01*
X340800Y148000D02*
X372000Y116800D01*
X277043Y148000D02*
X340800D01*
X279543Y143000D02*
X326820D01*
X282043Y138000D02*
X325400D01*
X372000Y91400D01*
X284543Y133000D02*
X309004D01*
X361874Y80130D01*
X386030D01*
X397300Y91400D01*
X265193Y121150D02*
X265322Y121020D01*
X260193Y123650D02*
X260322Y123520D01*
X301760Y85540D02*
X346700Y40600D01*
X240063Y133520D02*
X240193Y133650D01*
X245193Y131150D02*
X245322Y131020D01*
X194300Y40600D02*
Y43856D01*
X190193Y47964D02*
Y158400D01*
Y47964D02*
X194300Y43856D01*
X185193Y50472D02*
Y161200D01*
X170193Y67292D02*
Y161200D01*
X175193Y65872D02*
Y161200D01*
X143500Y40600D02*
X170193Y67292D01*
X165193Y81272D02*
Y161200D01*
X143500Y15300D02*
Y15500D01*
X160193Y82692D02*
Y161200D01*
X118100Y40600D02*
X160193Y82692D01*
X133263Y137870D02*
X133392Y138000D01*
X42000Y116800D02*
X68220Y143020D01*
X63826Y18774D02*
Y23174D01*
Y18774D02*
X67300Y15300D01*
X133263Y142870D02*
X133392Y143000D01*
X42000Y142200D02*
X87800Y188000D01*
X133392D01*
X84024Y193000D02*
X133392D01*
X42000Y167600D02*
X72400Y198000D01*
X133392D01*
X68625Y203000D02*
X133392D01*
X42400Y218000D02*
X133392D01*
X42000Y218400D02*
X42400Y218000D01*
X56379Y223000D02*
X133392D01*
X42000Y243800D02*
X57800Y228000D01*
X133392D01*
X71779Y233000D02*
X133392D01*
X47682Y257098D02*
X71779Y233000D01*
X73200Y238000D02*
X133392D01*
X42000Y269200D02*
X73200Y238000D01*
X87179Y243000D02*
X133392D01*
X42000Y294600D02*
X88600Y248000D01*
X133392D01*
X759700Y224700D02*
Y238700D01*
X738000Y203000D02*
X759700Y224700D01*
X663792Y203000D02*
X738000D01*
X734000Y208000D02*
X755160Y229160D01*
X661292Y208000D02*
X734000D01*
X755160Y229160D02*
Y240581D01*
X729000Y213000D02*
X750620Y234620D01*
X658792Y213000D02*
X729000D01*
X750620Y234620D02*
Y256620D01*
X726000Y218000D02*
X746080Y238080D01*
X655993Y218000D02*
X726000D01*
X746080Y238080D02*
Y263080D01*
X656123Y223130D02*
X723130D01*
X741540Y241540D02*
Y269699D01*
X723130Y223130D02*
X741540Y241540D01*
X656123Y228130D02*
X718130D01*
X737000Y247000D02*
Y271579D01*
X718130Y228130D02*
X737000Y247000D01*
X715000Y233000D02*
X732460Y250460D01*
X655993Y233000D02*
X715000D01*
X732460Y250460D02*
Y273460D01*
X718840Y257023D02*
Y300840D01*
X709947Y248130D02*
X718840Y257023D01*
X656123Y243130D02*
X711367D01*
X656123Y248130D02*
X709947D01*
X713130Y238130D02*
X727920Y252920D01*
X656123Y238130D02*
X713130D01*
X723380Y255143D02*
Y289100D01*
X711367Y243130D02*
X723380Y255143D01*
X727920Y252920D02*
Y287220D01*
X621000Y336421D02*
Y358000D01*
X608300Y342700D02*
Y345400D01*
X634193Y269800D02*
Y316807D01*
X608300Y342700D02*
X634193Y316807D01*
X621000Y336421D02*
X639193Y318228D01*
Y269800D02*
Y318228D01*
X629193Y269800D02*
Y307883D01*
X596000Y341076D02*
X629193Y307883D01*
X596000Y341076D02*
Y357600D01*
X506700Y345400D02*
X540670Y311430D01*
X577832D01*
X532100Y345400D02*
X556990Y320510D01*
X524350Y302350D02*
X574071D01*
X558950Y325050D02*
X583473D01*
X506880Y288000D02*
X566000D01*
X545000Y339000D02*
X558950Y325050D01*
X528586Y306890D02*
X575951D01*
X484469Y310410D02*
X506880Y288000D01*
X512266Y297810D02*
X572190D01*
X508300Y293000D02*
X569000D01*
X455900Y345400D02*
X508300Y293000D01*
X469000Y341076D02*
X512266Y297810D01*
X494000Y341475D02*
X528586Y306890D01*
X544906Y315970D02*
X579712D01*
X556990Y320510D02*
X581593D01*
X520000Y340876D02*
X544906Y315970D01*
X481300Y345400D02*
X524350Y302350D01*
X425000Y55000D02*
X436225D01*
X495840Y114615D01*
X419000Y49000D02*
X425000Y55000D01*
X494000Y46880D02*
X524000Y76879D01*
Y122000D01*
X535000Y133000D01*
X462000Y104000D02*
X486760Y128760D01*
X491300Y123300D02*
Y148300D01*
X504920Y108600D02*
Y141341D01*
X495840Y114615D02*
Y145260D01*
X486760Y128760D02*
Y151760D01*
X455900Y40600D02*
X509460Y94160D01*
Y139460D01*
X430500Y40600D02*
X500380Y110480D01*
Y143380D01*
X443000Y46680D02*
X504920Y108600D01*
X469000Y44924D02*
X514000Y89924D01*
X518540Y77840D02*
Y127540D01*
X463854Y95854D02*
X491300Y123300D01*
X481300Y40600D02*
X518540Y77840D01*
X514000Y89924D02*
Y131000D01*
X535000Y133000D02*
X547393D01*
X528870Y137870D02*
X547262D01*
X518540Y127540D02*
X528870Y137870D01*
X525870Y142870D02*
X547262D01*
X514000Y131000D02*
X525870Y142870D01*
X518000Y148000D02*
X547393D01*
X509460Y139460D02*
X518000Y148000D01*
X516580Y153000D02*
X547393D01*
X504920Y141341D02*
X516580Y153000D01*
X495840Y145260D02*
X513579Y163000D01*
X500380Y143380D02*
X515000Y158000D01*
X513579Y163000D02*
X547393D01*
X515000Y158000D02*
X547393D01*
X491300Y148300D02*
X511000Y168000D01*
X547393D01*
X463710Y95854D02*
X463854D01*
X456000Y91400D02*
X459256D01*
X463710Y95854D01*
X443300Y104000D02*
X462000D01*
X430700Y91400D02*
X443300Y104000D01*
X508000Y173000D02*
X547393D01*
X482220Y143020D02*
Y153641D01*
X506580Y178000D02*
X547393D01*
X486760Y151760D02*
X508000Y173000D01*
X482220Y153641D02*
X506580Y178000D01*
X477680Y147256D02*
Y155680D01*
X505000Y183000D02*
X547393D01*
X477680Y155680D02*
X505000Y183000D01*
X443900Y130000D02*
X460424D01*
X430700Y116800D02*
X443900Y130000D01*
X460424D02*
X477680Y147256D01*
X443500Y155000D02*
X460024D01*
X430700Y142200D02*
X443500Y155000D01*
X460024D02*
X498024Y193000D01*
X430700Y167600D02*
X443100Y180000D01*
X459624D02*
X482625Y203000D01*
X443100Y180000D02*
X459624D01*
X443700Y206000D02*
X462000D01*
X469000Y213000D02*
X547393D01*
X462000Y206000D02*
X469000Y213000D01*
X456000Y193000D02*
X471000Y208000D01*
X547393D01*
X430700Y193000D02*
X443700Y206000D01*
X462379Y231000D02*
X470379Y223000D01*
X443300Y231000D02*
X462379D01*
X430700Y218400D02*
X443300Y231000D01*
X443998Y257098D02*
X461682D01*
X430700Y243800D02*
X443998Y257098D01*
X462179Y282000D02*
X501180Y243000D01*
X443500Y282000D02*
X462179D01*
X430700Y269200D02*
X443500Y282000D01*
X430700Y294600D02*
X443100Y307000D01*
X462480D02*
X516349Y253130D01*
X443100Y307000D02*
X462480D01*
X516349Y253130D02*
X547262D01*
X443000Y341675D02*
Y358200D01*
X430500Y370700D02*
X443000Y358200D01*
Y341675D02*
X474266Y310410D01*
X455900Y370700D02*
X469000Y357600D01*
Y341076D02*
Y357600D01*
X481300Y370700D02*
X494000Y358000D01*
Y341475D02*
Y358000D01*
X520000Y340876D02*
Y357400D01*
X506700Y370700D02*
X520000Y357400D01*
X564193Y269800D02*
Y281512D01*
X430500Y345400D02*
X492900Y283000D01*
X562705D02*
X564193Y281512D01*
X492900Y283000D02*
X562705D01*
X569000Y293000D02*
X574062Y287938D01*
X566000Y288000D02*
X569062Y284937D01*
X573870Y334130D02*
X587234D01*
X571990Y329590D02*
X585354D01*
X557500Y344080D02*
X571990Y329590D01*
X570000Y338000D02*
X573870Y334130D01*
X569062Y269930D02*
Y284937D01*
X574062Y269930D02*
Y287938D01*
X557500Y344080D02*
Y345400D01*
X570000Y338000D02*
Y358200D01*
X594193Y269800D02*
Y295069D01*
X585354Y329590D02*
X614193Y300751D01*
X583473Y325050D02*
X609193Y299331D01*
X587234Y334130D02*
X619193Y302172D01*
X599193Y269800D02*
Y296490D01*
X619193Y269800D02*
Y302172D01*
X609193Y269800D02*
Y299331D01*
X577832Y311430D02*
X594193Y295069D01*
X604193Y269800D02*
Y297910D01*
X575951Y306890D02*
X589062Y293778D01*
X574071Y302350D02*
X584193Y292228D01*
X614193Y269800D02*
Y300751D01*
X584193Y269800D02*
Y292228D01*
X579712Y315970D02*
X599193Y296490D01*
X579193Y269800D02*
Y290807D01*
X572190Y297810D02*
X579193Y290807D01*
X589062Y269930D02*
Y293778D01*
X581593Y320510D02*
X604193Y297910D01*
X545000Y339000D02*
Y357800D01*
X532100Y370700D02*
X545000Y357800D01*
X557500Y370700D02*
X570000Y358200D01*
X582900Y370700D02*
X596000Y357600D01*
X608300Y370700D02*
X621000Y358000D01*
X633700Y370700D02*
X646000Y358400D01*
Y341875D02*
Y358400D01*
Y341875D02*
X649193Y338683D01*
X659193Y326513D02*
X672000Y339320D01*
X659100Y370700D02*
X672000Y357800D01*
Y339320D02*
Y357800D01*
X697000Y340000D02*
Y358200D01*
X669193Y269800D02*
Y312192D01*
X697000Y340000D01*
X684500Y370700D02*
X697000Y358200D01*
X735300Y344879D02*
Y345400D01*
X684193Y293772D02*
X735300Y344879D01*
X684193Y269800D02*
Y293772D01*
X723000Y339000D02*
Y357600D01*
X679193Y269800D02*
Y295193D01*
X723000Y339000D01*
X709900Y370700D02*
X723000Y357600D01*
X718840Y300840D02*
X760700Y342700D01*
Y345400D01*
X707523Y298643D02*
X748000Y339120D01*
X735300Y370700D02*
X748000Y358000D01*
Y339120D02*
Y358000D01*
X773000Y338721D02*
Y358400D01*
X760700Y370700D02*
X773000Y358400D01*
X723380Y289100D02*
X773000Y338721D01*
X776961Y311540D02*
X787540D01*
X741540Y269699D02*
X778841Y307000D01*
X737000Y271579D02*
X776961Y311540D01*
X799000Y340000D02*
Y357800D01*
X732460Y273460D02*
X799000Y340000D01*
X778841Y307000D02*
X791000D01*
X786100Y370700D02*
X799000Y357800D01*
X810000Y343900D02*
X811500Y345400D01*
X787540Y311540D02*
X810000Y334000D01*
Y343900D01*
X791000Y307000D02*
X823000Y339000D01*
X775678Y292678D02*
X784078D01*
X746080Y263080D02*
X775678Y292678D01*
X784078D02*
X786000Y294600D01*
X750620Y256620D02*
X776000Y282000D01*
X798700D01*
X811300Y294600D01*
X783780Y269200D02*
X786000D01*
X755160Y240581D02*
X783780Y269200D01*
X759700Y238700D02*
X777000Y256000D01*
X798100D01*
X811300Y269200D01*
X668792Y193000D02*
X742000D01*
X780000Y231000D01*
X798500D01*
X740200Y198000D02*
X786000Y243800D01*
X666292Y198000D02*
X740200D01*
X798500Y231000D02*
X811300Y243800D01*
X671292Y188000D02*
X755580D01*
X778120Y210540D01*
X778140D01*
X786000Y218400D01*
X780000Y206000D02*
X798900D01*
X673792Y183000D02*
X757000D01*
X780000Y206000D01*
X786000Y218400D02*
X786000D01*
X798900Y206000D02*
X811300Y218400D01*
X798300Y180000D02*
X811300Y193000D01*
X777000Y180000D02*
X798300D01*
X770000Y173000D02*
X777000Y180000D01*
X676292Y178000D02*
X768579D01*
X783579Y193000D01*
X678792Y173000D02*
X770000D01*
X783579Y193000D02*
X786000D01*
X798700Y155000D02*
X811300Y167600D01*
X779621Y155000D02*
X798700D01*
X771620Y163000D02*
X779621Y155000D01*
X799100Y130000D02*
X811300Y142200D01*
X779221Y130000D02*
X799100D01*
X756220Y153000D02*
X779221Y130000D01*
X779821Y104000D02*
X798500D01*
X740820Y143000D02*
X779821Y104000D01*
X798500D02*
X811300Y116800D01*
X799000Y27800D02*
Y48000D01*
X764380Y66620D02*
X786801D01*
X762499Y62080D02*
X784920D01*
X799000Y48000D01*
X811500Y40600D02*
Y41920D01*
X786801Y66620D02*
X811500Y41920D01*
X799000Y27800D02*
X811500Y15300D01*
X701540Y49880D02*
X709900Y41520D01*
Y40600D02*
Y41520D01*
X701540Y49880D02*
Y49880D01*
X684041Y67380D02*
X701540Y49880D01*
X666040Y67380D02*
X684041D01*
X697000Y28200D02*
Y48000D01*
X664160Y62840D02*
X682160D01*
X697000Y48000D01*
Y28200D02*
X709900Y15300D01*
X727540Y49880D02*
X735300Y42120D01*
X700961Y76460D02*
X727540Y49880D01*
X735300Y40600D02*
Y42120D01*
X727540Y49880D02*
Y49880D01*
X670540Y76460D02*
X700961D01*
X699080Y71920D02*
X723000Y48000D01*
X668080Y71920D02*
X699080D01*
X723000Y27600D02*
Y48000D01*
Y27600D02*
X735300Y15300D01*
X711525Y81000D02*
X748000Y44524D01*
Y28000D02*
X760700Y15300D01*
X748000Y28000D02*
Y44524D01*
X760619Y57540D02*
X769881D01*
X754721Y53000D02*
X768000D01*
X717641Y90080D02*
X754721Y53000D01*
X727300Y103700D02*
X764380Y66620D01*
X725420Y99160D02*
X762499Y62080D01*
X723539Y94620D02*
X760619Y57540D01*
X769881D02*
X786100Y41321D01*
X768000Y53000D02*
X773000Y48000D01*
X786100Y40600D02*
Y41321D01*
X773000Y28400D02*
Y48000D01*
Y28400D02*
X786100Y15300D01*
X522540Y59540D02*
X536540D01*
X564193Y87192D02*
Y161200D01*
X536540Y59540D02*
X564193Y87192D01*
X506700Y43700D02*
X522540Y59540D01*
X506700Y40600D02*
Y43700D01*
X519000Y28400D02*
X532100Y15300D01*
X519000Y28400D02*
Y47000D01*
X527000Y55000D01*
X539000D01*
X569193Y85192D01*
Y161200D01*
X419000Y26800D02*
X430500Y15300D01*
X419000Y26800D02*
Y49000D01*
X443000Y28200D02*
Y46680D01*
Y28200D02*
X455900Y15300D01*
X469000Y32000D02*
Y44924D01*
Y32000D02*
X477826Y23174D01*
X494000Y28000D02*
X506700Y15300D01*
X494000Y28000D02*
Y46880D01*
X545000Y47080D02*
X579193Y81272D01*
X545000Y28000D02*
Y47080D01*
Y28000D02*
X557500Y15500D01*
X570000Y28200D02*
Y46680D01*
Y28200D02*
X582900Y15300D01*
X570000Y46680D02*
X589193Y65872D01*
X594193Y54193D02*
Y161200D01*
X582900Y42900D02*
X594193Y54193D01*
X582900Y40600D02*
Y42900D01*
X596000Y47280D02*
X599193Y50472D01*
X596000Y27600D02*
Y47280D01*
Y27600D02*
X608300Y15300D01*
X614193Y63363D02*
Y153400D01*
Y63363D02*
X633700Y43856D01*
Y40600D02*
Y43856D01*
X609193Y59808D02*
X621000Y48000D01*
Y28000D02*
Y48000D01*
Y28000D02*
X633700Y15300D01*
X609193Y59808D02*
Y155900D01*
X619193Y76807D02*
Y150900D01*
Y76807D02*
X646000Y50000D01*
Y28400D02*
Y50000D01*
Y28400D02*
X659100Y15300D01*
X655626Y44074D02*
Y48374D01*
X624193Y79808D02*
X655626Y48374D01*
X624193Y79808D02*
Y148400D01*
X655626Y44074D02*
X659100Y40600D01*
X629193Y82808D02*
X658240Y53760D01*
X629193Y82808D02*
Y145900D01*
X658240Y53760D02*
X662564D01*
X634193Y84808D02*
X660700Y58300D01*
X666800D01*
X634193Y84808D02*
Y143400D01*
X649193Y90808D02*
Y135900D01*
X639193Y87808D02*
Y140900D01*
Y87808D02*
X664160Y62840D01*
X644193Y89228D02*
X666040Y67380D01*
X644193Y89228D02*
Y138400D01*
X649193Y90808D02*
X668080Y71920D01*
X654062Y92937D02*
Y133520D01*
Y92937D02*
X670540Y76460D01*
X669193Y97808D02*
Y126150D01*
X664193Y96387D02*
X675040Y85540D01*
X669193Y97808D02*
X676920Y90080D01*
X659323Y94677D02*
Y131020D01*
X673000Y81000D02*
X711525D01*
X675040Y85540D02*
X715760D01*
X659323Y94677D02*
X673000Y81000D01*
X664193Y96387D02*
Y128650D01*
X676920Y90080D02*
X717641D01*
X679323Y100677D02*
X680840Y99160D01*
X678960Y94620D02*
X723539D01*
X674323Y99257D02*
Y123520D01*
Y99257D02*
X678960Y94620D01*
X679323Y100677D02*
Y121020D01*
X680840Y99160D02*
X725420D01*
X684323Y107677D02*
X688300Y103700D01*
X684323Y107677D02*
Y118520D01*
X688300Y103700D02*
X727300D01*
X684193Y118650D02*
X684323Y118520D01*
X662564Y53760D02*
X672000Y44324D01*
Y27800D02*
Y44324D01*
Y27800D02*
X684500Y15300D01*
X666800Y58300D02*
X684500Y40600D01*
X811400Y370600D02*
X823000Y359000D01*
Y339000D02*
Y359000D01*
X474266Y310410D02*
X484469D01*
X569062Y269930D02*
X569193Y269800D01*
X547262Y253130D02*
X547393Y253000D01*
X574062Y269930D02*
X574193Y269800D01*
X589062Y269930D02*
X589193Y269800D01*
X624193D02*
Y304107D01*
X582900Y345400D02*
X624193Y304107D01*
X644193Y269800D02*
Y334907D01*
X633700Y345400D02*
X644193Y334907D01*
X649193Y269800D02*
Y338683D01*
X659100Y342144D02*
Y345400D01*
X654193Y269800D02*
Y337237D01*
X659100Y342144D01*
X659193Y269800D02*
Y326513D01*
X664193Y269800D02*
Y325093D01*
X684500Y345400D01*
X674193Y269800D02*
Y309692D01*
X709900Y345400D01*
X707523Y253130D02*
Y298643D01*
X707393Y253000D02*
X707523Y253130D01*
X655993Y253000D02*
X707393D01*
X655993Y248000D02*
X656123Y248130D01*
X727920Y287220D02*
X786100Y345400D01*
X655993Y243000D02*
X656123Y243130D01*
X655993Y238000D02*
X656123Y238130D01*
X655993Y228000D02*
X656123Y228130D01*
X655993Y223000D02*
X656123Y223130D01*
X785600Y168000D02*
X786000Y167600D01*
X681292Y168000D02*
X785600D01*
X683542Y163000D02*
X771620D01*
X770200Y158000D02*
X786000Y142200D01*
X686042Y158000D02*
X770200D01*
X688542Y153000D02*
X756220D01*
X754800Y148000D02*
X786000Y116800D01*
X691042Y148000D02*
X754800D01*
X693542Y143000D02*
X740820D01*
X696042Y138000D02*
X739400D01*
X786000Y91400D01*
X698542Y133000D02*
X723003D01*
X775874Y80130D01*
X800030D01*
X811300Y91400D01*
X679193Y121150D02*
X679323Y121020D01*
X674193Y123650D02*
X674323Y123520D01*
X715760Y85540D02*
X760700Y40600D01*
X654062Y133520D02*
X654193Y133650D01*
X659193Y131150D02*
X659323Y131020D01*
X608300Y40600D02*
Y43856D01*
X604193Y47964D02*
Y158400D01*
Y47964D02*
X608300Y43856D01*
X599193Y50472D02*
Y161200D01*
X584193Y67292D02*
Y161200D01*
X589193Y65872D02*
Y161200D01*
X557500Y40600D02*
X584193Y67292D01*
X579193Y81272D02*
Y161200D01*
X557500Y15300D02*
Y15500D01*
X574193Y82692D02*
Y161200D01*
X532100Y40600D02*
X574193Y82692D01*
X547262Y137870D02*
X547393Y138000D01*
X456000Y116800D02*
X482220Y143020D01*
X477826Y18774D02*
Y23174D01*
Y18774D02*
X481300Y15300D01*
X547262Y142870D02*
X547393Y143000D01*
X456000Y142200D02*
X501800Y188000D01*
X547393D01*
X498024Y193000D02*
X547393D01*
X456000Y167600D02*
X486400Y198000D01*
X547393D01*
X482625Y203000D02*
X547393D01*
X456400Y218000D02*
X547393D01*
X456000Y218400D02*
X456400Y218000D01*
X470379Y223000D02*
X547393D01*
X456000Y243800D02*
X471800Y228000D01*
X547393D01*
X485779Y233000D02*
X547393D01*
X461682Y257098D02*
X485779Y233000D01*
X487200Y238000D02*
X547393D01*
X456000Y269200D02*
X487200Y238000D01*
X501180Y243000D02*
X547393D01*
X456000Y294600D02*
X502600Y248000D01*
X547393D01*
X345700Y610700D02*
Y624700D01*
X324000Y589000D02*
X345700Y610700D01*
X249792Y589000D02*
X324000D01*
X320000Y594000D02*
X341160Y615160D01*
X247292Y594000D02*
X320000D01*
X341160Y615160D02*
Y626581D01*
X315000Y599000D02*
X336620Y620620D01*
X244792Y599000D02*
X315000D01*
X336620Y620620D02*
Y642620D01*
X312000Y604000D02*
X332080Y624080D01*
X241992Y604000D02*
X312000D01*
X332080Y624080D02*
Y649080D01*
X242122Y609130D02*
X309130D01*
X327540Y627540D02*
Y655699D01*
X309130Y609130D02*
X327540Y627540D01*
X242122Y614130D02*
X304130D01*
X323000Y633000D02*
Y657579D01*
X304130Y614130D02*
X323000Y633000D01*
X301000Y619000D02*
X318460Y636460D01*
X241992Y619000D02*
X301000D01*
X318460Y636460D02*
Y659460D01*
X304840Y643023D02*
Y686840D01*
X295947Y634130D02*
X304840Y643023D01*
X242122Y629130D02*
X297367D01*
X242122Y634130D02*
X295947D01*
X299130Y624130D02*
X313920Y638920D01*
X242122Y624130D02*
X299130D01*
X309380Y641143D02*
Y675100D01*
X297367Y629130D02*
X309380Y641143D01*
X313920Y638920D02*
Y673220D01*
X207000Y722421D02*
Y744000D01*
X194300Y728700D02*
Y731400D01*
X220193Y655800D02*
Y702807D01*
X194300Y728700D02*
X220193Y702807D01*
X207000Y722421D02*
X225193Y704228D01*
Y655800D02*
Y704228D01*
X215193Y655800D02*
Y693883D01*
X182000Y727076D02*
X215193Y693883D01*
X182000Y727076D02*
Y743600D01*
X92700Y731400D02*
X126670Y697430D01*
X163832D01*
X118100Y731400D02*
X142990Y706510D01*
X110350Y688350D02*
X160070D01*
X144950Y711050D02*
X169473D01*
X92879Y674000D02*
X152000D01*
X131000Y725000D02*
X144950Y711050D01*
X114586Y692890D02*
X161951D01*
X70469Y696410D02*
X92879Y674000D01*
X98265Y683810D02*
X158190D01*
X94300Y679000D02*
X155000D01*
X41900Y731400D02*
X94300Y679000D01*
X55000Y727076D02*
X98265Y683810D01*
X80000Y727476D02*
X114586Y692890D01*
X130906Y701970D02*
X165712D01*
X142990Y706510D02*
X167593D01*
X106000Y726876D02*
X130906Y701970D01*
X67300Y731400D02*
X110350Y688350D01*
X11000Y441000D02*
X22225D01*
X81840Y500616D01*
X5000Y435000D02*
X11000Y441000D01*
X80000Y432879D02*
X110000Y462879D01*
Y508000D01*
X121000Y519000D01*
X48000Y490000D02*
X72760Y514760D01*
X77300Y509300D02*
Y534300D01*
X90920Y494599D02*
Y527341D01*
X81840Y500616D02*
Y531260D01*
X72760Y514760D02*
Y537760D01*
X41900Y426600D02*
X95460Y480160D01*
Y525460D01*
X16500Y426600D02*
X86380Y496480D01*
Y529380D01*
X29000Y432679D02*
X90920Y494599D01*
X55000Y430924D02*
X100000Y475924D01*
X104540Y463840D02*
Y513540D01*
X49854Y481854D02*
X77300Y509300D01*
X67300Y426600D02*
X104540Y463840D01*
X100000Y475924D02*
Y517000D01*
X121000Y519000D02*
X133392D01*
X114870Y523870D02*
X133263D01*
X104540Y513540D02*
X114870Y523870D01*
X111870Y528870D02*
X133263D01*
X100000Y517000D02*
X111870Y528870D01*
X104000Y534000D02*
X133392D01*
X95460Y525460D02*
X104000Y534000D01*
X102579Y539000D02*
X133392D01*
X90920Y527341D02*
X102579Y539000D01*
X81840Y531260D02*
X99579Y549000D01*
X86380Y529380D02*
X101000Y544000D01*
X99579Y549000D02*
X133392D01*
X101000Y544000D02*
X133392D01*
X77300Y534300D02*
X97000Y554000D01*
X133392D01*
X49710Y481854D02*
X49854D01*
X42000Y477400D02*
X45256D01*
X49710Y481854D01*
X29300Y490000D02*
X48000D01*
X16700Y477400D02*
X29300Y490000D01*
X94000Y559000D02*
X133392D01*
X68220Y529020D02*
Y539641D01*
X92579Y564000D02*
X133392D01*
X72760Y537760D02*
X94000Y559000D01*
X68220Y539641D02*
X92579Y564000D01*
X63680Y533256D02*
Y541680D01*
X91000Y569000D02*
X133392D01*
X63680Y541680D02*
X91000Y569000D01*
X29900Y516000D02*
X46424D01*
X16700Y502800D02*
X29900Y516000D01*
X46424D02*
X63680Y533256D01*
X29500Y541000D02*
X46024D01*
X16700Y528200D02*
X29500Y541000D01*
X46024D02*
X84024Y579000D01*
X16700Y553600D02*
X29100Y566000D01*
X45624D02*
X68625Y589000D01*
X29100Y566000D02*
X45624D01*
X29700Y592000D02*
X48000D01*
X55000Y599000D02*
X133392D01*
X48000Y592000D02*
X55000Y599000D01*
X42000Y579000D02*
X57000Y594000D01*
X133392D01*
X16700Y579000D02*
X29700Y592000D01*
X48380Y617000D02*
X56379Y609000D01*
X29300Y617000D02*
X48380D01*
X16700Y604400D02*
X29300Y617000D01*
X29998Y643098D02*
X47682D01*
X16700Y629800D02*
X29998Y643098D01*
X48179Y668000D02*
X87179Y629000D01*
X29500Y668000D02*
X48179D01*
X16700Y655200D02*
X29500Y668000D01*
X16700Y680600D02*
X29100Y693000D01*
X48479D02*
X102349Y639130D01*
X29100Y693000D02*
X48479D01*
X102349Y639130D02*
X133263D01*
X29000Y727675D02*
Y744200D01*
X16500Y756700D02*
X29000Y744200D01*
Y727675D02*
X60265Y696410D01*
X41900Y756700D02*
X55000Y743600D01*
Y727076D02*
Y743600D01*
X67300Y756700D02*
X80000Y744000D01*
Y727476D02*
Y744000D01*
X106000Y726876D02*
Y743400D01*
X92700Y756700D02*
X106000Y743400D01*
X150192Y655800D02*
Y667512D01*
X16500Y731400D02*
X78900Y669000D01*
X148705D02*
X150192Y667512D01*
X78900Y669000D02*
X148705D01*
X155000Y679000D02*
X160063Y673938D01*
X152000Y674000D02*
X155063Y670938D01*
X159870Y720130D02*
X173234D01*
X157990Y715590D02*
X171354D01*
X143500Y730079D02*
X157990Y715590D01*
X156000Y724000D02*
X159870Y720130D01*
X155063Y655930D02*
Y670938D01*
X160063Y655930D02*
Y673938D01*
X143500Y730079D02*
Y731400D01*
X156000Y724000D02*
Y744200D01*
X180193Y655800D02*
Y681069D01*
X171354Y715590D02*
X200193Y686751D01*
X169473Y711050D02*
X195193Y685331D01*
X173234Y720130D02*
X205193Y688172D01*
X185193Y655800D02*
Y682489D01*
X205193Y655800D02*
Y688172D01*
X195193Y655800D02*
Y685331D01*
X163832Y697430D02*
X180193Y681069D01*
X190193Y655800D02*
Y683910D01*
X161951Y692890D02*
X175063Y679779D01*
X160070Y688350D02*
X170193Y678228D01*
X200193Y655800D02*
Y686751D01*
X170193Y655800D02*
Y678228D01*
X165712Y701970D02*
X185193Y682489D01*
X165193Y655800D02*
Y676807D01*
X158190Y683810D02*
X165193Y676807D01*
X175063Y655930D02*
Y679779D01*
X167593Y706510D02*
X190193Y683910D01*
X131000Y725000D02*
Y743800D01*
X118100Y756700D02*
X131000Y743800D01*
X143500Y756700D02*
X156000Y744200D01*
X168900Y756700D02*
X182000Y743600D01*
X194300Y756700D02*
X207000Y744000D01*
X219700Y756700D02*
X232000Y744400D01*
Y727876D02*
Y744400D01*
Y727876D02*
X235193Y724683D01*
X245193Y712513D02*
X258000Y725321D01*
X245100Y756700D02*
X258000Y743800D01*
Y725321D02*
Y743800D01*
X283000Y726000D02*
Y744200D01*
X255193Y655800D02*
Y698193D01*
X283000Y726000D01*
X270500Y756700D02*
X283000Y744200D01*
X321300Y730879D02*
Y731400D01*
X270193Y679772D02*
X321300Y730879D01*
X270193Y655800D02*
Y679772D01*
X309000Y725000D02*
Y743600D01*
X265193Y655800D02*
Y681192D01*
X309000Y725000D01*
X295900Y756700D02*
X309000Y743600D01*
X304840Y686840D02*
X346700Y728700D01*
Y731400D01*
X293522Y684643D02*
X334000Y725120D01*
X321300Y756700D02*
X334000Y744000D01*
Y725120D02*
Y744000D01*
X359000Y724721D02*
Y744400D01*
X346700Y756700D02*
X359000Y744400D01*
X309380Y675100D02*
X359000Y724721D01*
X362961Y697540D02*
X373540D01*
X327540Y655699D02*
X364841Y693000D01*
X323000Y657579D02*
X362961Y697540D01*
X385000Y726000D02*
Y743800D01*
X318460Y659460D02*
X385000Y726000D01*
X364841Y693000D02*
X377000D01*
X372100Y756700D02*
X385000Y743800D01*
X396000Y729900D02*
X397500Y731400D01*
X373540Y697540D02*
X396000Y720000D01*
Y729900D01*
X377000Y693000D02*
X409000Y725000D01*
X361678Y678678D02*
X370078D01*
X332080Y649080D02*
X361678Y678678D01*
X370078D02*
X372000Y680600D01*
X336620Y642620D02*
X362000Y668000D01*
X384700D01*
X397300Y680600D01*
X369780Y655200D02*
X372000D01*
X341160Y626581D02*
X369780Y655200D01*
X345700Y624700D02*
X363000Y642000D01*
X384100D01*
X397300Y655200D01*
X254792Y579000D02*
X328000D01*
X366000Y617000D01*
X384500D01*
X326200Y584000D02*
X372000Y629800D01*
X252292Y584000D02*
X326200D01*
X384500Y617000D02*
X397300Y629800D01*
X257292Y574000D02*
X341580D01*
X364119Y596540D01*
X364140D01*
X372000Y604400D01*
X366000Y592000D02*
X384900D01*
X259792Y569000D02*
X343000D01*
X366000Y592000D01*
X372000Y604400D02*
X372000D01*
X384900Y592000D02*
X397300Y604400D01*
X384300Y566000D02*
X397300Y579000D01*
X363000Y566000D02*
X384300D01*
X356000Y559000D02*
X363000Y566000D01*
X262292Y564000D02*
X354580D01*
X369580Y579000D01*
X264792Y559000D02*
X356000D01*
X369580Y579000D02*
X372000D01*
X384700Y541000D02*
X397300Y553600D01*
X365620Y541000D02*
X384700D01*
X357621Y549000D02*
X365620Y541000D01*
X385100Y516000D02*
X397300Y528200D01*
X365220Y516000D02*
X385100D01*
X342220Y539000D02*
X365220Y516000D01*
X365821Y490000D02*
X384500D01*
X326820Y529000D02*
X365821Y490000D01*
X384500D02*
X397300Y502800D01*
X385000Y413800D02*
Y434000D01*
X350380Y452620D02*
X372800D01*
X348499Y448080D02*
X370920D01*
X385000Y434000D01*
X397500Y426600D02*
Y427920D01*
X372800Y452620D02*
X397500Y427920D01*
X385000Y413800D02*
X397500Y401300D01*
X287540Y435881D02*
X295900Y427520D01*
Y426600D02*
Y427520D01*
X287540Y435881D02*
Y435881D01*
X270040Y453380D02*
X287540Y435881D01*
X252041Y453380D02*
X270040D01*
X283000Y414200D02*
Y434000D01*
X250160Y448840D02*
X268160D01*
X283000Y434000D01*
Y414200D02*
X295900Y401300D01*
X313540Y435881D02*
X321300Y428120D01*
X286961Y462460D02*
X313540Y435881D01*
X321300Y426600D02*
Y428120D01*
X313540Y435881D02*
Y435881D01*
X256540Y462460D02*
X286961D01*
X285080Y457920D02*
X309000Y434000D01*
X254080Y457920D02*
X285080D01*
X309000Y413600D02*
Y434000D01*
Y413600D02*
X321300Y401300D01*
X297525Y467000D02*
X334000Y430524D01*
Y414000D02*
X346700Y401300D01*
X334000Y414000D02*
Y430524D01*
X346619Y443540D02*
X355881D01*
X340720Y439000D02*
X354000D01*
X303640Y476080D02*
X340720Y439000D01*
X313300Y489700D02*
X350380Y452620D01*
X311420Y485160D02*
X348499Y448080D01*
X309539Y480620D02*
X346619Y443540D01*
X355881D02*
X372100Y427321D01*
X354000Y439000D02*
X359000Y434000D01*
X372100Y426600D02*
Y427321D01*
X359000Y414400D02*
Y434000D01*
Y414400D02*
X372100Y401300D01*
X108540Y445540D02*
X122540D01*
X150192Y473192D02*
Y547200D01*
X122540Y445540D02*
X150192Y473192D01*
X92700Y429700D02*
X108540Y445540D01*
X92700Y426600D02*
Y429700D01*
X105000Y414400D02*
X118100Y401300D01*
X105000Y414400D02*
Y433000D01*
X113000Y441000D01*
X125000D01*
X155192Y471193D01*
Y547200D01*
X5000Y412800D02*
X16500Y401300D01*
X5000Y412800D02*
Y435000D01*
X29000Y414200D02*
Y432679D01*
Y414200D02*
X41900Y401300D01*
X55000Y418000D02*
Y430924D01*
Y418000D02*
X63826Y409174D01*
X80000Y414000D02*
X92700Y401300D01*
X80000Y414000D02*
Y432879D01*
X131000Y433079D02*
X165193Y467272D01*
X131000Y414000D02*
Y433079D01*
Y414000D02*
X143500Y401500D01*
X156000Y414200D02*
Y432679D01*
Y414200D02*
X168900Y401300D01*
X156000Y432679D02*
X175193Y451872D01*
X180193Y440192D02*
Y547200D01*
X168900Y428900D02*
X180193Y440192D01*
X168900Y426600D02*
Y428900D01*
X182000Y433279D02*
X185193Y436472D01*
X182000Y413600D02*
Y433279D01*
Y413600D02*
X194300Y401300D01*
X200193Y449364D02*
Y539400D01*
Y449364D02*
X219700Y429856D01*
Y426600D02*
Y429856D01*
X195193Y445807D02*
X207000Y434000D01*
Y414000D02*
Y434000D01*
Y414000D02*
X219700Y401300D01*
X195193Y445807D02*
Y541900D01*
X205193Y462808D02*
Y536900D01*
Y462808D02*
X232000Y436000D01*
Y414400D02*
Y436000D01*
Y414400D02*
X245100Y401300D01*
X241626Y430074D02*
Y434374D01*
X210193Y465807D02*
X241626Y434374D01*
X210193Y465807D02*
Y534400D01*
X241626Y430074D02*
X245100Y426600D01*
X215193Y468807D02*
X244240Y439760D01*
X215193Y468807D02*
Y531900D01*
X244240Y439760D02*
X248564D01*
X220193Y470807D02*
X246700Y444300D01*
X252800D01*
X220193Y470807D02*
Y529400D01*
X235193Y476808D02*
Y521900D01*
X225193Y473807D02*
Y526900D01*
Y473807D02*
X250160Y448840D01*
X230193Y475228D02*
X252041Y453380D01*
X230193Y475228D02*
Y524400D01*
X235193Y476808D02*
X254080Y457920D01*
X240063Y478937D02*
Y519520D01*
Y478937D02*
X256540Y462460D01*
X255193Y483807D02*
Y512150D01*
X250193Y482387D02*
X261040Y471540D01*
X255193Y483807D02*
X262920Y476080D01*
X245322Y480677D02*
Y517020D01*
X259000Y467000D02*
X297525D01*
X261040Y471540D02*
X301760D01*
X245322Y480677D02*
X259000Y467000D01*
X250193Y482387D02*
Y514650D01*
X262920Y476080D02*
X303640D01*
X265322Y486678D02*
X266840Y485160D01*
X264960Y480620D02*
X309539D01*
X260322Y485257D02*
Y509520D01*
Y485257D02*
X264960Y480620D01*
X265322Y486678D02*
Y507020D01*
X266840Y485160D02*
X311420D01*
X270322Y493677D02*
X274300Y489700D01*
X270322Y493677D02*
Y504520D01*
X274300Y489700D02*
X313300D01*
X270193Y504650D02*
X270322Y504520D01*
X248564Y439760D02*
X258000Y430325D01*
Y413800D02*
Y430325D01*
Y413800D02*
X270500Y401300D01*
X252800Y444300D02*
X270500Y426600D01*
X397400Y756600D02*
X409000Y745000D01*
Y725000D02*
Y745000D01*
X60265Y696410D02*
X70469D01*
X155063Y655930D02*
X155192Y655800D01*
X133263Y639130D02*
X133392Y639000D01*
X160063Y655930D02*
X160193Y655800D01*
X175063Y655930D02*
X175193Y655800D01*
X210193D02*
Y690107D01*
X168900Y731400D02*
X210193Y690107D01*
X230193Y655800D02*
Y720907D01*
X219700Y731400D02*
X230193Y720907D01*
X235193Y655800D02*
Y724683D01*
X245100Y728144D02*
Y731400D01*
X240193Y655800D02*
Y723236D01*
X245100Y728144D01*
X245193Y655800D02*
Y712513D01*
X250193Y655800D02*
Y711093D01*
X270500Y731400D01*
X260193Y655800D02*
Y695693D01*
X295900Y731400D01*
X293522Y639130D02*
Y684643D01*
X293393Y639000D02*
X293522Y639130D01*
X241992Y639000D02*
X293393D01*
X241992Y634000D02*
X242122Y634130D01*
X313920Y673220D02*
X372100Y731400D01*
X241992Y629000D02*
X242122Y629130D01*
X241992Y624000D02*
X242122Y624130D01*
X241992Y614000D02*
X242122Y614130D01*
X241992Y609000D02*
X242122Y609130D01*
X371600Y554000D02*
X372000Y553600D01*
X267292Y554000D02*
X371600D01*
X269543Y549000D02*
X357621D01*
X356200Y544000D02*
X372000Y528200D01*
X272043Y544000D02*
X356200D01*
X274543Y539000D02*
X342220D01*
X340800Y534000D02*
X372000Y502800D01*
X277043Y534000D02*
X340800D01*
X279543Y529000D02*
X326820D01*
X282043Y524000D02*
X325400D01*
X372000Y477400D01*
X284543Y519000D02*
X309004D01*
X361874Y466130D01*
X386030D01*
X397300Y477400D01*
X265193Y507150D02*
X265322Y507020D01*
X260193Y509650D02*
X260322Y509520D01*
X301760Y471540D02*
X346700Y426600D01*
X240063Y519520D02*
X240193Y519650D01*
X245193Y517150D02*
X245322Y517020D01*
X194300Y426600D02*
Y429856D01*
X190193Y433964D02*
Y544400D01*
Y433964D02*
X194300Y429856D01*
X185193Y436472D02*
Y547200D01*
X170193Y453293D02*
Y547200D01*
X175193Y451872D02*
Y547200D01*
X143500Y426600D02*
X170193Y453293D01*
X165193Y467272D02*
Y547200D01*
X143500Y401300D02*
Y401500D01*
X160193Y468693D02*
Y547200D01*
X118100Y426600D02*
X160193Y468693D01*
X133263Y523870D02*
X133392Y524000D01*
X42000Y502800D02*
X68220Y529020D01*
X63826Y404774D02*
Y409174D01*
Y404774D02*
X67300Y401300D01*
X133263Y528870D02*
X133392Y529000D01*
X42000Y528200D02*
X87800Y574000D01*
X133392D01*
X84024Y579000D02*
X133392D01*
X42000Y553600D02*
X72400Y584000D01*
X133392D01*
X68625Y589000D02*
X133392D01*
X42400Y604000D02*
X133392D01*
X42000Y604400D02*
X42400Y604000D01*
X56379Y609000D02*
X133392D01*
X42000Y629800D02*
X57800Y614000D01*
X133392D01*
X71779Y619000D02*
X133392D01*
X47682Y643098D02*
X71779Y619000D01*
X73200Y624000D02*
X133392D01*
X42000Y655200D02*
X73200Y624000D01*
X87179Y629000D02*
X133392D01*
X42000Y680600D02*
X88600Y634000D01*
X133392D01*
X759700Y610700D02*
Y624700D01*
X738000Y589000D02*
X759700Y610700D01*
X663792Y589000D02*
X738000D01*
X734000Y594000D02*
X755160Y615160D01*
X661292Y594000D02*
X734000D01*
X755160Y615160D02*
Y626581D01*
X729000Y599000D02*
X750620Y620620D01*
X658792Y599000D02*
X729000D01*
X750620Y620620D02*
Y642620D01*
X726000Y604000D02*
X746080Y624080D01*
X655993Y604000D02*
X726000D01*
X746080Y624080D02*
Y649080D01*
X656123Y609130D02*
X723130D01*
X741540Y627540D02*
Y655699D01*
X723130Y609130D02*
X741540Y627540D01*
X656123Y614130D02*
X718130D01*
X737000Y633000D02*
Y657579D01*
X718130Y614130D02*
X737000Y633000D01*
X715000Y619000D02*
X732460Y636460D01*
X655993Y619000D02*
X715000D01*
X732460Y636460D02*
Y659460D01*
X718840Y643023D02*
Y686840D01*
X709947Y634130D02*
X718840Y643023D01*
X656123Y629130D02*
X711367D01*
X656123Y634130D02*
X709947D01*
X713130Y624130D02*
X727920Y638920D01*
X656123Y624130D02*
X713130D01*
X723380Y641143D02*
Y675100D01*
X711367Y629130D02*
X723380Y641143D01*
X727920Y638920D02*
Y673220D01*
X621000Y722421D02*
Y744000D01*
X608300Y728700D02*
Y731400D01*
X634193Y655800D02*
Y702807D01*
X608300Y728700D02*
X634193Y702807D01*
X621000Y722421D02*
X639193Y704228D01*
Y655800D02*
Y704228D01*
X629193Y655800D02*
Y693883D01*
X596000Y727076D02*
X629193Y693883D01*
X596000Y727076D02*
Y743600D01*
X506700Y731400D02*
X540670Y697430D01*
X577832D01*
X532100Y731400D02*
X556990Y706510D01*
X524350Y688350D02*
X574071D01*
X558950Y711050D02*
X583473D01*
X506880Y674000D02*
X566000D01*
X545000Y725000D02*
X558950Y711050D01*
X528586Y692890D02*
X575951D01*
X484469Y696410D02*
X506880Y674000D01*
X512266Y683810D02*
X572190D01*
X508300Y679000D02*
X569000D01*
X455900Y731400D02*
X508300Y679000D01*
X469000Y727076D02*
X512266Y683810D01*
X494000Y727476D02*
X528586Y692890D01*
X544906Y701970D02*
X579712D01*
X556990Y706510D02*
X581593D01*
X520000Y726876D02*
X544906Y701970D01*
X481300Y731400D02*
X524350Y688350D01*
X425000Y441000D02*
X436225D01*
X495840Y500616D01*
X419000Y435000D02*
X425000Y441000D01*
X494000Y432879D02*
X524000Y462879D01*
Y508000D01*
X535000Y519000D01*
X462000Y490000D02*
X486760Y514760D01*
X491300Y509300D02*
Y534300D01*
X504920Y494599D02*
Y527341D01*
X495840Y500616D02*
Y531260D01*
X486760Y514760D02*
Y537760D01*
X455900Y426600D02*
X509460Y480160D01*
Y525460D01*
X430500Y426600D02*
X500380Y496480D01*
Y529380D01*
X443000Y432679D02*
X504920Y494599D01*
X469000Y430924D02*
X514000Y475924D01*
X518540Y463840D02*
Y513540D01*
X463854Y481854D02*
X491300Y509300D01*
X481300Y426600D02*
X518540Y463840D01*
X514000Y475924D02*
Y517000D01*
X535000Y519000D02*
X547393D01*
X528870Y523870D02*
X547262D01*
X518540Y513540D02*
X528870Y523870D01*
X525870Y528870D02*
X547262D01*
X514000Y517000D02*
X525870Y528870D01*
X518000Y534000D02*
X547393D01*
X509460Y525460D02*
X518000Y534000D01*
X516580Y539000D02*
X547393D01*
X504920Y527341D02*
X516580Y539000D01*
X495840Y531260D02*
X513579Y549000D01*
X500380Y529380D02*
X515000Y544000D01*
X513579Y549000D02*
X547393D01*
X515000Y544000D02*
X547393D01*
X491300Y534300D02*
X511000Y554000D01*
X547393D01*
X463710Y481854D02*
X463854D01*
X456000Y477400D02*
X459256D01*
X463710Y481854D01*
X443300Y490000D02*
X462000D01*
X430700Y477400D02*
X443300Y490000D01*
X508000Y559000D02*
X547393D01*
X482220Y529020D02*
Y539641D01*
X506580Y564000D02*
X547393D01*
X486760Y537760D02*
X508000Y559000D01*
X482220Y539641D02*
X506580Y564000D01*
X477680Y533256D02*
Y541680D01*
X505000Y569000D02*
X547393D01*
X477680Y541680D02*
X505000Y569000D01*
X443900Y516000D02*
X460424D01*
X430700Y502800D02*
X443900Y516000D01*
X460424D02*
X477680Y533256D01*
X443500Y541000D02*
X460024D01*
X430700Y528200D02*
X443500Y541000D01*
X460024D02*
X498024Y579000D01*
X430700Y553600D02*
X443100Y566000D01*
X459624D02*
X482625Y589000D01*
X443100Y566000D02*
X459624D01*
X443700Y592000D02*
X462000D01*
X469000Y599000D02*
X547393D01*
X462000Y592000D02*
X469000Y599000D01*
X456000Y579000D02*
X471000Y594000D01*
X547393D01*
X430700Y579000D02*
X443700Y592000D01*
X462379Y617000D02*
X470379Y609000D01*
X443300Y617000D02*
X462379D01*
X430700Y604400D02*
X443300Y617000D01*
X443998Y643098D02*
X461682D01*
X430700Y629800D02*
X443998Y643098D01*
X462179Y668000D02*
X501180Y629000D01*
X443500Y668000D02*
X462179D01*
X430700Y655200D02*
X443500Y668000D01*
X430700Y680600D02*
X443100Y693000D01*
X462480D02*
X516349Y639130D01*
X443100Y693000D02*
X462480D01*
X516349Y639130D02*
X547262D01*
X443000Y727675D02*
Y744200D01*
X430500Y756700D02*
X443000Y744200D01*
Y727675D02*
X474266Y696410D01*
X455900Y756700D02*
X469000Y743600D01*
Y727076D02*
Y743600D01*
X481300Y756700D02*
X494000Y744000D01*
Y727476D02*
Y744000D01*
X520000Y726876D02*
Y743400D01*
X506700Y756700D02*
X520000Y743400D01*
X564193Y655800D02*
Y667512D01*
X430500Y731400D02*
X492900Y669000D01*
X562705D02*
X564193Y667512D01*
X492900Y669000D02*
X562705D01*
X569000Y679000D02*
X574062Y673938D01*
X566000Y674000D02*
X569062Y670938D01*
X573870Y720130D02*
X587234D01*
X571990Y715590D02*
X585354D01*
X557500Y730079D02*
X571990Y715590D01*
X570000Y724000D02*
X573870Y720130D01*
X569062Y655930D02*
Y670938D01*
X574062Y655930D02*
Y673938D01*
X557500Y730079D02*
Y731400D01*
X570000Y724000D02*
Y744200D01*
X594193Y655800D02*
Y681069D01*
X585354Y715590D02*
X614193Y686751D01*
X583473Y711050D02*
X609193Y685331D01*
X587234Y720130D02*
X619193Y688172D01*
X599193Y655800D02*
Y682489D01*
X619193Y655800D02*
Y688172D01*
X609193Y655800D02*
Y685331D01*
X577832Y697430D02*
X594193Y681069D01*
X604193Y655800D02*
Y683910D01*
X575951Y692890D02*
X589062Y679779D01*
X574071Y688350D02*
X584193Y678228D01*
X614193Y655800D02*
Y686751D01*
X584193Y655800D02*
Y678228D01*
X579712Y701970D02*
X599193Y682489D01*
X579193Y655800D02*
Y676807D01*
X572190Y683810D02*
X579193Y676807D01*
X589062Y655930D02*
Y679779D01*
X581593Y706510D02*
X604193Y683910D01*
X545000Y725000D02*
Y743800D01*
X532100Y756700D02*
X545000Y743800D01*
X557500Y756700D02*
X570000Y744200D01*
X582900Y756700D02*
X596000Y743600D01*
X608300Y756700D02*
X621000Y744000D01*
X633700Y756700D02*
X646000Y744400D01*
Y727876D02*
Y744400D01*
Y727876D02*
X649193Y724683D01*
X659193Y712513D02*
X672000Y725321D01*
X659100Y756700D02*
X672000Y743800D01*
Y725321D02*
Y743800D01*
X697000Y726000D02*
Y744200D01*
X669193Y655800D02*
Y698193D01*
X697000Y726000D01*
X684500Y756700D02*
X697000Y744200D01*
X735300Y730879D02*
Y731400D01*
X684193Y679772D02*
X735300Y730879D01*
X684193Y655800D02*
Y679772D01*
X723000Y725000D02*
Y743600D01*
X679193Y655800D02*
Y681192D01*
X723000Y725000D01*
X709900Y756700D02*
X723000Y743600D01*
X718840Y686840D02*
X760700Y728700D01*
Y731400D01*
X707523Y684643D02*
X748000Y725120D01*
X735300Y756700D02*
X748000Y744000D01*
Y725120D02*
Y744000D01*
X773000Y724721D02*
Y744400D01*
X760700Y756700D02*
X773000Y744400D01*
X723380Y675100D02*
X773000Y724721D01*
X776961Y697540D02*
X787540D01*
X741540Y655699D02*
X778841Y693000D01*
X737000Y657579D02*
X776961Y697540D01*
X799000Y726000D02*
Y743800D01*
X732460Y659460D02*
X799000Y726000D01*
X778841Y693000D02*
X791000D01*
X786100Y756700D02*
X799000Y743800D01*
X810000Y729900D02*
X811500Y731400D01*
X787540Y697540D02*
X810000Y720000D01*
Y729900D01*
X791000Y693000D02*
X823000Y725000D01*
X775678Y678678D02*
X784078D01*
X746080Y649080D02*
X775678Y678678D01*
X784078D02*
X786000Y680600D01*
X750620Y642620D02*
X776000Y668000D01*
X798700D01*
X811300Y680600D01*
X783780Y655200D02*
X786000D01*
X755160Y626581D02*
X783780Y655200D01*
X759700Y624700D02*
X777000Y642000D01*
X798100D01*
X811300Y655200D01*
X668792Y579000D02*
X742000D01*
X780000Y617000D01*
X798500D01*
X740200Y584000D02*
X786000Y629800D01*
X666292Y584000D02*
X740200D01*
X798500Y617000D02*
X811300Y629800D01*
X671292Y574000D02*
X755580D01*
X778120Y596540D01*
X778140D01*
X786000Y604400D01*
X780000Y592000D02*
X798900D01*
X673792Y569000D02*
X757000D01*
X780000Y592000D01*
X786000Y604400D02*
X786000D01*
X798900Y592000D02*
X811300Y604400D01*
X798300Y566000D02*
X811300Y579000D01*
X777000Y566000D02*
X798300D01*
X770000Y559000D02*
X777000Y566000D01*
X676292Y564000D02*
X768579D01*
X783579Y579000D01*
X678792Y559000D02*
X770000D01*
X783579Y579000D02*
X786000D01*
X798700Y541000D02*
X811300Y553600D01*
X779621Y541000D02*
X798700D01*
X771620Y549000D02*
X779621Y541000D01*
X799100Y516000D02*
X811300Y528200D01*
X779221Y516000D02*
X799100D01*
X756220Y539000D02*
X779221Y516000D01*
X779821Y490000D02*
X798500D01*
X740820Y529000D02*
X779821Y490000D01*
X798500D02*
X811300Y502800D01*
X799000Y413800D02*
Y434000D01*
X764380Y452620D02*
X786801D01*
X762499Y448080D02*
X784920D01*
X799000Y434000D01*
X811500Y426600D02*
Y427920D01*
X786801Y452620D02*
X811500Y427920D01*
X799000Y413800D02*
X811500Y401300D01*
X701540Y435881D02*
X709900Y427520D01*
Y426600D02*
Y427520D01*
X701540Y435881D02*
Y435881D01*
X684041Y453380D02*
X701540Y435881D01*
X666040Y453380D02*
X684041D01*
X697000Y414200D02*
Y434000D01*
X664160Y448840D02*
X682160D01*
X697000Y434000D01*
Y414200D02*
X709900Y401300D01*
X727540Y435881D02*
X735300Y428120D01*
X700961Y462460D02*
X727540Y435881D01*
X735300Y426600D02*
Y428120D01*
X727540Y435881D02*
Y435881D01*
X670540Y462460D02*
X700961D01*
X699080Y457920D02*
X723000Y434000D01*
X668080Y457920D02*
X699080D01*
X723000Y413600D02*
Y434000D01*
Y413600D02*
X735300Y401300D01*
X711525Y467000D02*
X748000Y430524D01*
Y414000D02*
X760700Y401300D01*
X748000Y414000D02*
Y430524D01*
X760619Y443540D02*
X769881D01*
X754721Y439000D02*
X768000D01*
X717641Y476080D02*
X754721Y439000D01*
X727300Y489700D02*
X764380Y452620D01*
X725420Y485160D02*
X762499Y448080D01*
X723539Y480620D02*
X760619Y443540D01*
X769881D02*
X786100Y427321D01*
X768000Y439000D02*
X773000Y434000D01*
X786100Y426600D02*
Y427321D01*
X773000Y414400D02*
Y434000D01*
Y414400D02*
X786100Y401300D01*
X522540Y445540D02*
X536540D01*
X564193Y473192D02*
Y547200D01*
X536540Y445540D02*
X564193Y473192D01*
X506700Y429700D02*
X522540Y445540D01*
X506700Y426600D02*
Y429700D01*
X519000Y414400D02*
X532100Y401300D01*
X519000Y414400D02*
Y433000D01*
X527000Y441000D01*
X539000D01*
X569193Y471193D01*
Y547200D01*
X419000Y412800D02*
X430500Y401300D01*
X419000Y412800D02*
Y435000D01*
X443000Y414200D02*
Y432679D01*
Y414200D02*
X455900Y401300D01*
X469000Y418000D02*
Y430924D01*
Y418000D02*
X477826Y409174D01*
X494000Y414000D02*
X506700Y401300D01*
X494000Y414000D02*
Y432879D01*
X545000Y433079D02*
X579193Y467272D01*
X545000Y414000D02*
Y433079D01*
Y414000D02*
X557500Y401500D01*
X570000Y414200D02*
Y432679D01*
Y414200D02*
X582900Y401300D01*
X570000Y432679D02*
X589193Y451872D01*
X594193Y440192D02*
Y547200D01*
X582900Y428900D02*
X594193Y440192D01*
X582900Y426600D02*
Y428900D01*
X596000Y433279D02*
X599193Y436472D01*
X596000Y413600D02*
Y433279D01*
Y413600D02*
X608300Y401300D01*
X614193Y449364D02*
Y539400D01*
Y449364D02*
X633700Y429856D01*
Y426600D02*
Y429856D01*
X609193Y445807D02*
X621000Y434000D01*
Y414000D02*
Y434000D01*
Y414000D02*
X633700Y401300D01*
X609193Y445807D02*
Y541900D01*
X619193Y462808D02*
Y536900D01*
Y462808D02*
X646000Y436000D01*
Y414400D02*
Y436000D01*
Y414400D02*
X659100Y401300D01*
X655626Y430074D02*
Y434374D01*
X624193Y465807D02*
X655626Y434374D01*
X624193Y465807D02*
Y534400D01*
X655626Y430074D02*
X659100Y426600D01*
X629193Y468807D02*
X658240Y439760D01*
X629193Y468807D02*
Y531900D01*
X658240Y439760D02*
X662564D01*
X634193Y470807D02*
X660700Y444300D01*
X666800D01*
X634193Y470807D02*
Y529400D01*
X649193Y476808D02*
Y521900D01*
X639193Y473807D02*
Y526900D01*
Y473807D02*
X664160Y448840D01*
X644193Y475228D02*
X666040Y453380D01*
X644193Y475228D02*
Y524400D01*
X649193Y476808D02*
X668080Y457920D01*
X654062Y478937D02*
Y519520D01*
Y478937D02*
X670540Y462460D01*
X669193Y483807D02*
Y512150D01*
X664193Y482387D02*
X675040Y471540D01*
X669193Y483807D02*
X676920Y476080D01*
X659323Y480677D02*
Y517020D01*
X673000Y467000D02*
X711525D01*
X675040Y471540D02*
X715760D01*
X659323Y480677D02*
X673000Y467000D01*
X664193Y482387D02*
Y514650D01*
X676920Y476080D02*
X717641D01*
X679323Y486678D02*
X680840Y485160D01*
X678960Y480620D02*
X723539D01*
X674323Y485257D02*
Y509520D01*
Y485257D02*
X678960Y480620D01*
X679323Y486678D02*
Y507020D01*
X680840Y485160D02*
X725420D01*
X684323Y493677D02*
X688300Y489700D01*
X684323Y493677D02*
Y504520D01*
X688300Y489700D02*
X727300D01*
X684193Y504650D02*
X684323Y504520D01*
X662564Y439760D02*
X672000Y430325D01*
Y413800D02*
Y430325D01*
Y413800D02*
X684500Y401300D01*
X666800Y444300D02*
X684500Y426600D01*
X811400Y756600D02*
X823000Y745000D01*
Y725000D02*
Y745000D01*
X474266Y696410D02*
X484469D01*
X569062Y655930D02*
X569193Y655800D01*
X547262Y639130D02*
X547393Y639000D01*
X574062Y655930D02*
X574193Y655800D01*
X589062Y655930D02*
X589193Y655800D01*
X624193D02*
Y690107D01*
X582900Y731400D02*
X624193Y690107D01*
X644193Y655800D02*
Y720907D01*
X633700Y731400D02*
X644193Y720907D01*
X649193Y655800D02*
Y724683D01*
X659100Y728144D02*
Y731400D01*
X654193Y655800D02*
Y723236D01*
X659100Y728144D01*
X659193Y655800D02*
Y712513D01*
X664193Y655800D02*
Y711093D01*
X684500Y731400D01*
X674193Y655800D02*
Y695693D01*
X709900Y731400D01*
X707523Y639130D02*
Y684643D01*
X707393Y639000D02*
X707523Y639130D01*
X655993Y639000D02*
X707393D01*
X655993Y634000D02*
X656123Y634130D01*
X727920Y673220D02*
X786100Y731400D01*
X655993Y629000D02*
X656123Y629130D01*
X655993Y624000D02*
X656123Y624130D01*
X655993Y614000D02*
X656123Y614130D01*
X655993Y609000D02*
X656123Y609130D01*
X785600Y554000D02*
X786000Y553600D01*
X681292Y554000D02*
X785600D01*
X683542Y549000D02*
X771620D01*
X770200Y544000D02*
X786000Y528200D01*
X686042Y544000D02*
X770200D01*
X688542Y539000D02*
X756220D01*
X754800Y534000D02*
X786000Y502800D01*
X691042Y534000D02*
X754800D01*
X693542Y529000D02*
X740820D01*
X696042Y524000D02*
X739400D01*
X786000Y477400D01*
X698542Y519000D02*
X723003D01*
X775874Y466130D01*
X800030D01*
X811300Y477400D01*
X679193Y507150D02*
X679323Y507020D01*
X674193Y509650D02*
X674323Y509520D01*
X715760Y471540D02*
X760700Y426600D01*
X654062Y519520D02*
X654193Y519650D01*
X659193Y517150D02*
X659323Y517020D01*
X608300Y426600D02*
Y429856D01*
X604193Y433964D02*
Y544400D01*
Y433964D02*
X608300Y429856D01*
X599193Y436472D02*
Y547200D01*
X584193Y453293D02*
Y547200D01*
X589193Y451872D02*
Y547200D01*
X557500Y426600D02*
X584193Y453293D01*
X579193Y467272D02*
Y547200D01*
X557500Y401300D02*
Y401500D01*
X574193Y468693D02*
Y547200D01*
X532100Y426600D02*
X574193Y468693D01*
X547262Y523870D02*
X547393Y524000D01*
X456000Y502800D02*
X482220Y529020D01*
X477826Y404774D02*
Y409174D01*
Y404774D02*
X481300Y401300D01*
X547262Y528870D02*
X547393Y529000D01*
X456000Y528200D02*
X501800Y574000D01*
X547393D01*
X498024Y579000D02*
X547393D01*
X456000Y553600D02*
X486400Y584000D01*
X547393D01*
X482625Y589000D02*
X547393D01*
X456400Y604000D02*
X547393D01*
X456000Y604400D02*
X456400Y604000D01*
X470379Y609000D02*
X547393D01*
X456000Y629800D02*
X471800Y614000D01*
X547393D01*
X485779Y619000D02*
X547393D01*
X461682Y643098D02*
X485779Y619000D01*
X487200Y624000D02*
X547393D01*
X456000Y655200D02*
X487200Y624000D01*
X501180Y629000D02*
X547393D01*
X456000Y680600D02*
X502600Y634000D01*
X547393D01*
D49*
X397300Y142200D02*
D03*
Y91400D02*
D03*
Y116800D02*
D03*
Y167600D02*
D03*
Y193000D02*
D03*
Y218400D02*
D03*
Y243800D02*
D03*
Y269200D02*
D03*
Y294600D02*
D03*
X372000D02*
D03*
Y269200D02*
D03*
Y243800D02*
D03*
Y218400D02*
D03*
Y167600D02*
D03*
Y193000D02*
D03*
Y116800D02*
D03*
Y142200D02*
D03*
Y91400D02*
D03*
X16700Y243800D02*
D03*
X16700Y294600D02*
D03*
X16700Y269200D02*
D03*
X16700Y218400D02*
D03*
Y193000D02*
D03*
X16700Y167600D02*
D03*
Y142200D02*
D03*
X16700Y116800D02*
D03*
X16700Y91400D02*
D03*
X42000D02*
D03*
Y116800D02*
D03*
Y142200D02*
D03*
Y167600D02*
D03*
Y218400D02*
D03*
Y193000D02*
D03*
Y269200D02*
D03*
Y243800D02*
D03*
Y294600D02*
D03*
X811300Y142200D02*
D03*
Y91400D02*
D03*
Y116800D02*
D03*
Y167600D02*
D03*
Y193000D02*
D03*
Y218400D02*
D03*
Y243800D02*
D03*
Y269200D02*
D03*
Y294600D02*
D03*
X786000D02*
D03*
Y269200D02*
D03*
Y243800D02*
D03*
Y218400D02*
D03*
Y167600D02*
D03*
Y193000D02*
D03*
Y116800D02*
D03*
Y142200D02*
D03*
Y91400D02*
D03*
X430700Y243800D02*
D03*
X430700Y294600D02*
D03*
X430700Y269200D02*
D03*
X430700Y218400D02*
D03*
Y193000D02*
D03*
X430700Y167600D02*
D03*
Y142200D02*
D03*
X430700Y116800D02*
D03*
X430700Y91400D02*
D03*
X456000D02*
D03*
Y116800D02*
D03*
Y142200D02*
D03*
Y167600D02*
D03*
Y218400D02*
D03*
Y193000D02*
D03*
Y269200D02*
D03*
Y243800D02*
D03*
Y294600D02*
D03*
X397300Y528200D02*
D03*
Y477400D02*
D03*
Y502800D02*
D03*
Y553600D02*
D03*
Y579000D02*
D03*
Y604400D02*
D03*
Y629800D02*
D03*
Y655200D02*
D03*
Y680600D02*
D03*
X372000D02*
D03*
Y655200D02*
D03*
Y629800D02*
D03*
Y604400D02*
D03*
Y553600D02*
D03*
Y579000D02*
D03*
Y502800D02*
D03*
Y528200D02*
D03*
Y477400D02*
D03*
X16700Y629800D02*
D03*
X16700Y680600D02*
D03*
X16700Y655200D02*
D03*
X16700Y604400D02*
D03*
Y579000D02*
D03*
X16700Y553600D02*
D03*
Y528200D02*
D03*
X16700Y502800D02*
D03*
X16700Y477400D02*
D03*
X42000D02*
D03*
Y502800D02*
D03*
Y528200D02*
D03*
Y553600D02*
D03*
Y604400D02*
D03*
Y579000D02*
D03*
Y655200D02*
D03*
Y629800D02*
D03*
Y680600D02*
D03*
X811300Y528200D02*
D03*
Y477400D02*
D03*
Y502800D02*
D03*
Y553600D02*
D03*
Y579000D02*
D03*
Y604400D02*
D03*
Y629800D02*
D03*
Y655200D02*
D03*
Y680600D02*
D03*
X786000D02*
D03*
Y655200D02*
D03*
Y629800D02*
D03*
Y604400D02*
D03*
Y553600D02*
D03*
Y579000D02*
D03*
Y502800D02*
D03*
Y528200D02*
D03*
Y477400D02*
D03*
X430700Y629800D02*
D03*
X430700Y680600D02*
D03*
X430700Y655200D02*
D03*
X430700Y604400D02*
D03*
Y579000D02*
D03*
X430700Y553600D02*
D03*
Y528200D02*
D03*
X430700Y502800D02*
D03*
X430700Y477400D02*
D03*
X456000D02*
D03*
Y502800D02*
D03*
Y528200D02*
D03*
Y553600D02*
D03*
Y604400D02*
D03*
Y579000D02*
D03*
Y655200D02*
D03*
Y629800D02*
D03*
Y680600D02*
D03*
D50*
X143500Y345400D02*
D03*
Y370700D02*
D03*
X67300Y345400D02*
D03*
X41900D02*
D03*
X92700Y345400D02*
D03*
X118100Y345400D02*
D03*
X16500D02*
D03*
X67300Y370700D02*
D03*
X41900D02*
D03*
X92700D02*
D03*
X118100D02*
D03*
X16500D02*
D03*
X270500Y345400D02*
D03*
X372100D02*
D03*
X245100D02*
D03*
X295900D02*
D03*
X321300Y345400D02*
D03*
X346700Y345400D02*
D03*
X397500Y370700D02*
D03*
X219700Y345400D02*
D03*
X397500D02*
D03*
X270500Y370700D02*
D03*
X372100D02*
D03*
X245100D02*
D03*
X295900D02*
D03*
X321300D02*
D03*
X346700D02*
D03*
X219700D02*
D03*
X194300Y345400D02*
D03*
X168900Y345400D02*
D03*
X194300Y370700D02*
D03*
X168900D02*
D03*
X270500Y40600D02*
D03*
Y15300D02*
D03*
X346700Y40600D02*
D03*
X372100D02*
D03*
X321300D02*
D03*
X295900D02*
D03*
X397500D02*
D03*
X346700Y15300D02*
D03*
X372100D02*
D03*
X321300D02*
D03*
X295900Y15300D02*
D03*
X397500Y15300D02*
D03*
X143500Y40600D02*
D03*
X41900D02*
D03*
X168900D02*
D03*
X118100D02*
D03*
X92700D02*
D03*
X67300D02*
D03*
X16500Y15300D02*
D03*
X194300Y40600D02*
D03*
X16500D02*
D03*
X143500Y15300D02*
D03*
X41900D02*
D03*
X168900D02*
D03*
X118100D02*
D03*
X92700D02*
D03*
X67300Y15300D02*
D03*
X194300D02*
D03*
X219700Y40600D02*
D03*
X245100D02*
D03*
X219700Y15300D02*
D03*
X245100D02*
D03*
X557500Y345400D02*
D03*
Y370700D02*
D03*
X481300Y345400D02*
D03*
X455900D02*
D03*
X506700Y345400D02*
D03*
X532100Y345400D02*
D03*
X430500D02*
D03*
X481300Y370700D02*
D03*
X455900D02*
D03*
X506700D02*
D03*
X532100D02*
D03*
X430500D02*
D03*
X684500Y345400D02*
D03*
X786100D02*
D03*
X659100D02*
D03*
X709900D02*
D03*
X735300Y345400D02*
D03*
X760700Y345400D02*
D03*
X811500Y370700D02*
D03*
X633700Y345400D02*
D03*
X811500D02*
D03*
X684500Y370700D02*
D03*
X786100D02*
D03*
X659100D02*
D03*
X709900D02*
D03*
X735300D02*
D03*
X760700D02*
D03*
X633700D02*
D03*
X608300Y345400D02*
D03*
X582900Y345400D02*
D03*
X608300Y370700D02*
D03*
X582900D02*
D03*
X684500Y40600D02*
D03*
Y15300D02*
D03*
X760700Y40600D02*
D03*
X786100D02*
D03*
X735300D02*
D03*
X709900D02*
D03*
X811500D02*
D03*
X760700Y15300D02*
D03*
X786100D02*
D03*
X735300D02*
D03*
X709900Y15300D02*
D03*
X811500Y15300D02*
D03*
X557500Y40600D02*
D03*
X455900D02*
D03*
X582900D02*
D03*
X532100D02*
D03*
X506700D02*
D03*
X481300D02*
D03*
X430500Y15300D02*
D03*
X608300Y40600D02*
D03*
X430500D02*
D03*
X557500Y15300D02*
D03*
X455900D02*
D03*
X582900D02*
D03*
X532100D02*
D03*
X506700D02*
D03*
X481300Y15300D02*
D03*
X608300D02*
D03*
X633700Y40600D02*
D03*
X659100D02*
D03*
X633700Y15300D02*
D03*
X659100D02*
D03*
X143500Y731400D02*
D03*
Y756700D02*
D03*
X67300Y731400D02*
D03*
X41900D02*
D03*
X92700Y731400D02*
D03*
X118100Y731400D02*
D03*
X16500D02*
D03*
X67300Y756700D02*
D03*
X41900D02*
D03*
X92700D02*
D03*
X118100D02*
D03*
X16500D02*
D03*
X270500Y731400D02*
D03*
X372100D02*
D03*
X245100D02*
D03*
X295900D02*
D03*
X321300Y731400D02*
D03*
X346700Y731400D02*
D03*
X397500Y756700D02*
D03*
X219700Y731400D02*
D03*
X397500D02*
D03*
X270500Y756700D02*
D03*
X372100D02*
D03*
X245100D02*
D03*
X295900D02*
D03*
X321300D02*
D03*
X346700D02*
D03*
X219700D02*
D03*
X194300Y731400D02*
D03*
X168900Y731400D02*
D03*
X194300Y756700D02*
D03*
X168900D02*
D03*
X270500Y426600D02*
D03*
Y401300D02*
D03*
X346700Y426600D02*
D03*
X372100D02*
D03*
X321300D02*
D03*
X295900D02*
D03*
X397500D02*
D03*
X346700Y401300D02*
D03*
X372100D02*
D03*
X321300D02*
D03*
X295900Y401300D02*
D03*
X397500Y401300D02*
D03*
X143500Y426600D02*
D03*
X41900D02*
D03*
X168900D02*
D03*
X118100D02*
D03*
X92700D02*
D03*
X67300D02*
D03*
X16500Y401300D02*
D03*
X194300Y426600D02*
D03*
X16500D02*
D03*
X143500Y401300D02*
D03*
X41900D02*
D03*
X168900D02*
D03*
X118100D02*
D03*
X92700D02*
D03*
X67300Y401300D02*
D03*
X194300D02*
D03*
X219700Y426600D02*
D03*
X245100D02*
D03*
X219700Y401300D02*
D03*
X245100D02*
D03*
X557500Y731400D02*
D03*
Y756700D02*
D03*
X481300Y731400D02*
D03*
X455900D02*
D03*
X506700Y731400D02*
D03*
X532100Y731400D02*
D03*
X430500D02*
D03*
X481300Y756700D02*
D03*
X455900D02*
D03*
X506700D02*
D03*
X532100D02*
D03*
X430500D02*
D03*
X684500Y731400D02*
D03*
X786100D02*
D03*
X659100D02*
D03*
X709900D02*
D03*
X735300Y731400D02*
D03*
X760700Y731400D02*
D03*
X811500Y756700D02*
D03*
X633700Y731400D02*
D03*
X811500D02*
D03*
X684500Y756700D02*
D03*
X786100D02*
D03*
X659100D02*
D03*
X709900D02*
D03*
X735300D02*
D03*
X760700D02*
D03*
X633700D02*
D03*
X608300Y731400D02*
D03*
X582900Y731400D02*
D03*
X608300Y756700D02*
D03*
X582900D02*
D03*
X684500Y426600D02*
D03*
Y401300D02*
D03*
X760700Y426600D02*
D03*
X786100D02*
D03*
X735300D02*
D03*
X709900D02*
D03*
X811500D02*
D03*
X760700Y401300D02*
D03*
X786100D02*
D03*
X735300D02*
D03*
X709900Y401300D02*
D03*
X811500Y401300D02*
D03*
X557500Y426600D02*
D03*
X455900D02*
D03*
X582900D02*
D03*
X532100D02*
D03*
X506700D02*
D03*
X481300D02*
D03*
X430500Y401300D02*
D03*
X608300Y426600D02*
D03*
X430500D02*
D03*
X557500Y401300D02*
D03*
X455900D02*
D03*
X582900D02*
D03*
X532100D02*
D03*
X506700D02*
D03*
X481300Y401300D02*
D03*
X608300D02*
D03*
X633700Y426600D02*
D03*
X659100D02*
D03*
X633700Y401300D02*
D03*
X659100D02*
D03*
M02*
