G04*
G04 #@! TF.GenerationSoftware,Altium Limited,Altium Designer,22.0.2 (36)*
G04*
G04 Layer_Physical_Order=2*
G04 Layer_Color=16711680*
%FSLAX44Y44*%
%MOMM*%
G71*
G04*
G04 #@! TF.SameCoordinates,7C54838C-0965-49BE-8F7A-A0EB361EFC81*
G04*
G04*
G04 #@! TF.FilePolarity,Positive*
G04*
G01*
G75*
%ADD48C,0.2540*%
%ADD49P,1.7318X8X292.5*%
%ADD50P,1.7318X8X202.5*%
%ADD51R,0.4500X1.6000*%
%ADD52R,7.2000X0.4500*%
%ADD53R,6.4000X0.4500*%
%ADD54R,5.6000X0.4500*%
%ADD55R,4.8000X0.4500*%
%ADD56R,4.0000X0.4500*%
%ADD57R,3.2000X0.4500*%
%ADD58R,2.4000X0.4500*%
%ADD59R,1.6000X0.4500*%
%ADD60R,8.0000X0.4500*%
%ADD61R,0.4500X7.2000*%
%ADD62R,0.4500X6.4000*%
%ADD63R,0.4500X5.6000*%
%ADD64R,0.4500X4.8000*%
%ADD65R,0.4500X4.0000*%
%ADD66R,0.4500X3.2000*%
%ADD67R,0.4500X2.4000*%
G04:AMPARAMS|DCode=68|XSize=0.45mm|YSize=1.6mm|CornerRadius=0mm|HoleSize=0mm|Usage=FLASHONLY|Rotation=90.000|XOffset=0mm|YOffset=0mm|HoleType=Round|Shape=Octagon|*
%AMOCTAGOND68*
4,1,8,-0.8000,-0.1125,-0.8000,0.1125,-0.6875,0.2250,0.6875,0.2250,0.8000,0.1125,0.8000,-0.1125,0.6875,-0.2250,-0.6875,-0.2250,-0.8000,-0.1125,0.0*
%
%ADD68OCTAGOND68*%

%ADD69R,0.4500X8.0000*%
%ADD70C,0.3000*%
D48*
X49000Y256000D02*
X60000Y245000D01*
X158755D01*
X29900Y256000D02*
X49000D01*
X16700Y269200D02*
X29900Y256000D01*
X463000D02*
X474000Y245000D01*
X572755D01*
X443900Y256000D02*
X463000D01*
X430700Y269200D02*
X443900Y256000D01*
X49000Y642000D02*
X60000Y631000D01*
X158755D01*
X29900Y642000D02*
X49000D01*
X16700Y655200D02*
X29900Y642000D01*
X463000D02*
X474000Y631000D01*
X572755D01*
X443900Y642000D02*
X463000D01*
X430700Y655200D02*
X443900Y642000D01*
D49*
X397300Y142200D02*
D03*
Y91400D02*
D03*
Y116800D02*
D03*
Y167600D02*
D03*
Y193000D02*
D03*
Y218400D02*
D03*
Y243800D02*
D03*
Y269200D02*
D03*
Y294600D02*
D03*
X372000D02*
D03*
Y269200D02*
D03*
Y243800D02*
D03*
Y218400D02*
D03*
Y167600D02*
D03*
Y193000D02*
D03*
Y116800D02*
D03*
Y142200D02*
D03*
Y91400D02*
D03*
X16700Y243800D02*
D03*
X16700Y294600D02*
D03*
X16700Y269200D02*
D03*
X16700Y218400D02*
D03*
Y193000D02*
D03*
X16700Y167600D02*
D03*
Y142200D02*
D03*
X16700Y116800D02*
D03*
X16700Y91400D02*
D03*
X42000D02*
D03*
Y116800D02*
D03*
Y142200D02*
D03*
Y167600D02*
D03*
Y218400D02*
D03*
Y193000D02*
D03*
Y269200D02*
D03*
Y243800D02*
D03*
Y294600D02*
D03*
X811300Y142200D02*
D03*
Y91400D02*
D03*
Y116800D02*
D03*
Y167600D02*
D03*
Y193000D02*
D03*
Y218400D02*
D03*
Y243800D02*
D03*
Y269200D02*
D03*
Y294600D02*
D03*
X786000D02*
D03*
Y269200D02*
D03*
Y243800D02*
D03*
Y218400D02*
D03*
Y167600D02*
D03*
Y193000D02*
D03*
Y116800D02*
D03*
Y142200D02*
D03*
Y91400D02*
D03*
X430700Y243800D02*
D03*
X430700Y294600D02*
D03*
X430700Y269200D02*
D03*
X430700Y218400D02*
D03*
Y193000D02*
D03*
X430700Y167600D02*
D03*
Y142200D02*
D03*
X430700Y116800D02*
D03*
X430700Y91400D02*
D03*
X456000D02*
D03*
Y116800D02*
D03*
Y142200D02*
D03*
Y167600D02*
D03*
Y218400D02*
D03*
Y193000D02*
D03*
Y269200D02*
D03*
Y243800D02*
D03*
Y294600D02*
D03*
X397300Y528200D02*
D03*
Y477400D02*
D03*
Y502800D02*
D03*
Y553600D02*
D03*
Y579000D02*
D03*
Y604400D02*
D03*
Y629800D02*
D03*
Y655200D02*
D03*
Y680600D02*
D03*
X372000D02*
D03*
Y655200D02*
D03*
Y629800D02*
D03*
Y604400D02*
D03*
Y553600D02*
D03*
Y579000D02*
D03*
Y502800D02*
D03*
Y528200D02*
D03*
Y477400D02*
D03*
X16700Y629800D02*
D03*
X16700Y680600D02*
D03*
X16700Y655200D02*
D03*
X16700Y604400D02*
D03*
Y579000D02*
D03*
X16700Y553600D02*
D03*
Y528200D02*
D03*
X16700Y502800D02*
D03*
X16700Y477400D02*
D03*
X42000D02*
D03*
Y502800D02*
D03*
Y528200D02*
D03*
Y553600D02*
D03*
Y604400D02*
D03*
Y579000D02*
D03*
Y655200D02*
D03*
Y629800D02*
D03*
Y680600D02*
D03*
X811300Y528200D02*
D03*
Y477400D02*
D03*
Y502800D02*
D03*
Y553600D02*
D03*
Y579000D02*
D03*
Y604400D02*
D03*
Y629800D02*
D03*
Y655200D02*
D03*
Y680600D02*
D03*
X786000D02*
D03*
Y655200D02*
D03*
Y629800D02*
D03*
Y604400D02*
D03*
Y553600D02*
D03*
Y579000D02*
D03*
Y502800D02*
D03*
Y528200D02*
D03*
Y477400D02*
D03*
X430700Y629800D02*
D03*
X430700Y680600D02*
D03*
X430700Y655200D02*
D03*
X430700Y604400D02*
D03*
Y579000D02*
D03*
X430700Y553600D02*
D03*
Y528200D02*
D03*
X430700Y502800D02*
D03*
X430700Y477400D02*
D03*
X456000D02*
D03*
Y502800D02*
D03*
Y528200D02*
D03*
Y553600D02*
D03*
Y604400D02*
D03*
Y579000D02*
D03*
Y655200D02*
D03*
Y629800D02*
D03*
Y680600D02*
D03*
D50*
X143500Y345400D02*
D03*
Y370700D02*
D03*
X67300Y345400D02*
D03*
X41900D02*
D03*
X92700Y345400D02*
D03*
X118100Y345400D02*
D03*
X16500D02*
D03*
X67300Y370700D02*
D03*
X41900D02*
D03*
X92700D02*
D03*
X118100D02*
D03*
X16500D02*
D03*
X270500Y345400D02*
D03*
X372100D02*
D03*
X245100D02*
D03*
X295900D02*
D03*
X321300Y345400D02*
D03*
X346700Y345400D02*
D03*
X397500Y370700D02*
D03*
X219700Y345400D02*
D03*
X397500D02*
D03*
X270500Y370700D02*
D03*
X372100D02*
D03*
X245100D02*
D03*
X295900D02*
D03*
X321300D02*
D03*
X346700D02*
D03*
X219700D02*
D03*
X194300Y345400D02*
D03*
X168900Y345400D02*
D03*
X194300Y370700D02*
D03*
X168900D02*
D03*
X270500Y40600D02*
D03*
Y15300D02*
D03*
X346700Y40600D02*
D03*
X372100D02*
D03*
X321300D02*
D03*
X295900D02*
D03*
X397500D02*
D03*
X346700Y15300D02*
D03*
X372100D02*
D03*
X321300D02*
D03*
X295900Y15300D02*
D03*
X397500Y15300D02*
D03*
X143500Y40600D02*
D03*
X41900D02*
D03*
X168900D02*
D03*
X118100D02*
D03*
X92700D02*
D03*
X67300D02*
D03*
X16500Y15300D02*
D03*
X194300Y40600D02*
D03*
X16500D02*
D03*
X143500Y15300D02*
D03*
X41900D02*
D03*
X168900D02*
D03*
X118100D02*
D03*
X92700D02*
D03*
X67300Y15300D02*
D03*
X194300D02*
D03*
X219700Y40600D02*
D03*
X245100D02*
D03*
X219700Y15300D02*
D03*
X245100D02*
D03*
X557500Y345400D02*
D03*
Y370700D02*
D03*
X481300Y345400D02*
D03*
X455900D02*
D03*
X506700Y345400D02*
D03*
X532100Y345400D02*
D03*
X430500D02*
D03*
X481300Y370700D02*
D03*
X455900D02*
D03*
X506700D02*
D03*
X532100D02*
D03*
X430500D02*
D03*
X684500Y345400D02*
D03*
X786100D02*
D03*
X659100D02*
D03*
X709900D02*
D03*
X735300Y345400D02*
D03*
X760700Y345400D02*
D03*
X811500Y370700D02*
D03*
X633700Y345400D02*
D03*
X811500D02*
D03*
X684500Y370700D02*
D03*
X786100D02*
D03*
X659100D02*
D03*
X709900D02*
D03*
X735300D02*
D03*
X760700D02*
D03*
X633700D02*
D03*
X608300Y345400D02*
D03*
X582900Y345400D02*
D03*
X608300Y370700D02*
D03*
X582900D02*
D03*
X684500Y40600D02*
D03*
Y15300D02*
D03*
X760700Y40600D02*
D03*
X786100D02*
D03*
X735300D02*
D03*
X709900D02*
D03*
X811500D02*
D03*
X760700Y15300D02*
D03*
X786100D02*
D03*
X735300D02*
D03*
X709900Y15300D02*
D03*
X811500Y15300D02*
D03*
X557500Y40600D02*
D03*
X455900D02*
D03*
X582900D02*
D03*
X532100D02*
D03*
X506700D02*
D03*
X481300D02*
D03*
X430500Y15300D02*
D03*
X608300Y40600D02*
D03*
X430500D02*
D03*
X557500Y15300D02*
D03*
X455900D02*
D03*
X582900D02*
D03*
X532100D02*
D03*
X506700D02*
D03*
X481300Y15300D02*
D03*
X608300D02*
D03*
X633700Y40600D02*
D03*
X659100D02*
D03*
X633700Y15300D02*
D03*
X659100D02*
D03*
X143500Y731400D02*
D03*
Y756700D02*
D03*
X67300Y731400D02*
D03*
X41900D02*
D03*
X92700Y731400D02*
D03*
X118100Y731400D02*
D03*
X16500D02*
D03*
X67300Y756700D02*
D03*
X41900D02*
D03*
X92700D02*
D03*
X118100D02*
D03*
X16500D02*
D03*
X270500Y731400D02*
D03*
X372100D02*
D03*
X245100D02*
D03*
X295900D02*
D03*
X321300Y731400D02*
D03*
X346700Y731400D02*
D03*
X397500Y756700D02*
D03*
X219700Y731400D02*
D03*
X397500D02*
D03*
X270500Y756700D02*
D03*
X372100D02*
D03*
X245100D02*
D03*
X295900D02*
D03*
X321300D02*
D03*
X346700D02*
D03*
X219700D02*
D03*
X194300Y731400D02*
D03*
X168900Y731400D02*
D03*
X194300Y756700D02*
D03*
X168900D02*
D03*
X270500Y426600D02*
D03*
Y401300D02*
D03*
X346700Y426600D02*
D03*
X372100D02*
D03*
X321300D02*
D03*
X295900D02*
D03*
X397500D02*
D03*
X346700Y401300D02*
D03*
X372100D02*
D03*
X321300D02*
D03*
X295900Y401300D02*
D03*
X397500Y401300D02*
D03*
X143500Y426600D02*
D03*
X41900D02*
D03*
X168900D02*
D03*
X118100D02*
D03*
X92700D02*
D03*
X67300D02*
D03*
X16500Y401300D02*
D03*
X194300Y426600D02*
D03*
X16500D02*
D03*
X143500Y401300D02*
D03*
X41900D02*
D03*
X168900D02*
D03*
X118100D02*
D03*
X92700D02*
D03*
X67300Y401300D02*
D03*
X194300D02*
D03*
X219700Y426600D02*
D03*
X245100D02*
D03*
X219700Y401300D02*
D03*
X245100D02*
D03*
X557500Y731400D02*
D03*
Y756700D02*
D03*
X481300Y731400D02*
D03*
X455900D02*
D03*
X506700Y731400D02*
D03*
X532100Y731400D02*
D03*
X430500D02*
D03*
X481300Y756700D02*
D03*
X455900D02*
D03*
X506700D02*
D03*
X532100D02*
D03*
X430500D02*
D03*
X684500Y731400D02*
D03*
X786100D02*
D03*
X659100D02*
D03*
X709900D02*
D03*
X735300Y731400D02*
D03*
X760700Y731400D02*
D03*
X811500Y756700D02*
D03*
X633700Y731400D02*
D03*
X811500D02*
D03*
X684500Y756700D02*
D03*
X786100D02*
D03*
X659100D02*
D03*
X709900D02*
D03*
X735300D02*
D03*
X760700D02*
D03*
X633700D02*
D03*
X608300Y731400D02*
D03*
X582900Y731400D02*
D03*
X608300Y756700D02*
D03*
X582900D02*
D03*
X684500Y426600D02*
D03*
Y401300D02*
D03*
X760700Y426600D02*
D03*
X786100D02*
D03*
X735300D02*
D03*
X709900D02*
D03*
X811500D02*
D03*
X760700Y401300D02*
D03*
X786100D02*
D03*
X735300D02*
D03*
X709900Y401300D02*
D03*
X811500Y401300D02*
D03*
X557500Y426600D02*
D03*
X455900D02*
D03*
X582900D02*
D03*
X532100D02*
D03*
X506700D02*
D03*
X481300D02*
D03*
X430500Y401300D02*
D03*
X608300Y426600D02*
D03*
X430500D02*
D03*
X557500Y401300D02*
D03*
X455900D02*
D03*
X582900D02*
D03*
X532100D02*
D03*
X506700D02*
D03*
X481300Y401300D02*
D03*
X608300D02*
D03*
X633700Y426600D02*
D03*
X659100D02*
D03*
X633700Y401300D02*
D03*
X659100D02*
D03*
D51*
X197755Y268000D02*
D03*
X189755D02*
D03*
X181755D02*
D03*
X173755D02*
D03*
X165755D02*
D03*
X157755D02*
D03*
X149755D02*
D03*
X141755D02*
D03*
X261755D02*
D03*
X253755D02*
D03*
X245755D02*
D03*
X237755D02*
D03*
X229755D02*
D03*
X221755D02*
D03*
X213755D02*
D03*
X205755D02*
D03*
X141755Y118000D02*
D03*
X611755Y268000D02*
D03*
X603755D02*
D03*
X595755D02*
D03*
X587755D02*
D03*
X579755D02*
D03*
X571755D02*
D03*
X563755D02*
D03*
X555755D02*
D03*
X675755D02*
D03*
X667755D02*
D03*
X659755D02*
D03*
X651755D02*
D03*
X643755D02*
D03*
X635755D02*
D03*
X627755D02*
D03*
X619755D02*
D03*
X555755Y118000D02*
D03*
X197755Y654000D02*
D03*
X189755D02*
D03*
X181755D02*
D03*
X173755D02*
D03*
X165755D02*
D03*
X157755D02*
D03*
X149755D02*
D03*
X141755D02*
D03*
X261755D02*
D03*
X253755D02*
D03*
X245755D02*
D03*
X237755D02*
D03*
X229755D02*
D03*
X221755D02*
D03*
X213755D02*
D03*
X205755D02*
D03*
X141755Y504000D02*
D03*
X611755Y654000D02*
D03*
X603755D02*
D03*
X595755D02*
D03*
X587755D02*
D03*
X579755D02*
D03*
X571755D02*
D03*
X563755D02*
D03*
X555755D02*
D03*
X675755D02*
D03*
X667755D02*
D03*
X659755D02*
D03*
X651755D02*
D03*
X643755D02*
D03*
X635755D02*
D03*
X627755D02*
D03*
X619755D02*
D03*
X555755Y504000D02*
D03*
D52*
X154755Y189000D02*
D03*
X568755D02*
D03*
X154755Y575000D02*
D03*
X568755D02*
D03*
D53*
X150755Y181000D02*
D03*
X564755D02*
D03*
X150755Y567000D02*
D03*
X564755D02*
D03*
D54*
X146755Y173000D02*
D03*
X560755D02*
D03*
X146755Y559000D02*
D03*
X560755D02*
D03*
D55*
X142755Y165000D02*
D03*
X556755D02*
D03*
X142755Y551000D02*
D03*
X556755D02*
D03*
D56*
X138755Y157000D02*
D03*
X552755D02*
D03*
X138755Y543000D02*
D03*
X552755D02*
D03*
D57*
X134755Y149000D02*
D03*
X548755D02*
D03*
X134755Y535000D02*
D03*
X548755D02*
D03*
D58*
X130755Y141000D02*
D03*
X544755D02*
D03*
X130755Y527000D02*
D03*
X544755D02*
D03*
D59*
X126755Y133000D02*
D03*
X276755D02*
D03*
Y141000D02*
D03*
Y149000D02*
D03*
Y157000D02*
D03*
Y165000D02*
D03*
Y173000D02*
D03*
Y181000D02*
D03*
Y189000D02*
D03*
Y245000D02*
D03*
Y237000D02*
D03*
Y229000D02*
D03*
Y221000D02*
D03*
Y213000D02*
D03*
Y205000D02*
D03*
Y197000D02*
D03*
X540755Y133000D02*
D03*
X690755D02*
D03*
Y141000D02*
D03*
Y149000D02*
D03*
Y157000D02*
D03*
Y165000D02*
D03*
Y173000D02*
D03*
Y181000D02*
D03*
Y189000D02*
D03*
Y245000D02*
D03*
Y237000D02*
D03*
Y229000D02*
D03*
Y221000D02*
D03*
Y213000D02*
D03*
Y205000D02*
D03*
Y197000D02*
D03*
X126755Y519000D02*
D03*
X276755D02*
D03*
Y527000D02*
D03*
Y535000D02*
D03*
Y543000D02*
D03*
Y551000D02*
D03*
Y559000D02*
D03*
Y567000D02*
D03*
Y575000D02*
D03*
Y631000D02*
D03*
Y623000D02*
D03*
Y615000D02*
D03*
Y607000D02*
D03*
Y599000D02*
D03*
Y591000D02*
D03*
Y583000D02*
D03*
X540755Y519000D02*
D03*
X690755D02*
D03*
Y527000D02*
D03*
Y535000D02*
D03*
Y543000D02*
D03*
Y551000D02*
D03*
Y559000D02*
D03*
Y567000D02*
D03*
Y575000D02*
D03*
Y631000D02*
D03*
Y623000D02*
D03*
Y615000D02*
D03*
Y607000D02*
D03*
Y599000D02*
D03*
Y591000D02*
D03*
Y583000D02*
D03*
D60*
X158755Y253000D02*
D03*
Y245000D02*
D03*
Y237000D02*
D03*
Y229000D02*
D03*
Y221000D02*
D03*
Y213000D02*
D03*
Y205000D02*
D03*
Y197000D02*
D03*
X572755Y253000D02*
D03*
Y245000D02*
D03*
Y237000D02*
D03*
Y229000D02*
D03*
Y221000D02*
D03*
Y213000D02*
D03*
Y205000D02*
D03*
Y197000D02*
D03*
X158755Y639000D02*
D03*
Y631000D02*
D03*
Y623000D02*
D03*
Y615000D02*
D03*
Y607000D02*
D03*
Y599000D02*
D03*
Y591000D02*
D03*
Y583000D02*
D03*
X572755Y639000D02*
D03*
Y631000D02*
D03*
Y623000D02*
D03*
Y615000D02*
D03*
Y607000D02*
D03*
Y599000D02*
D03*
Y591000D02*
D03*
Y583000D02*
D03*
D61*
X197755Y146000D02*
D03*
X611755D02*
D03*
X197755Y532000D02*
D03*
X611755D02*
D03*
D62*
X189755Y142000D02*
D03*
X603755D02*
D03*
X189755Y528000D02*
D03*
X603755D02*
D03*
D63*
X181755Y138000D02*
D03*
X595755D02*
D03*
X181755Y524000D02*
D03*
X595755D02*
D03*
D64*
X173755Y134000D02*
D03*
X587755D02*
D03*
X173755Y520000D02*
D03*
X587755D02*
D03*
D65*
X165755Y130000D02*
D03*
X579755D02*
D03*
X165755Y516000D02*
D03*
X579755D02*
D03*
D66*
X157755Y126000D02*
D03*
X571755D02*
D03*
X157755Y512000D02*
D03*
X571755D02*
D03*
D67*
X149755Y122000D02*
D03*
X563755D02*
D03*
X149755Y508000D02*
D03*
X563755D02*
D03*
D68*
X276755Y253000D02*
D03*
X690755D02*
D03*
X276755Y639000D02*
D03*
X690755D02*
D03*
D69*
X261755Y150000D02*
D03*
X253755D02*
D03*
X245755D02*
D03*
X237755D02*
D03*
X229755D02*
D03*
X221755D02*
D03*
X213755D02*
D03*
X205755D02*
D03*
X675755D02*
D03*
X667755D02*
D03*
X659755D02*
D03*
X651755D02*
D03*
X643755D02*
D03*
X635755D02*
D03*
X627755D02*
D03*
X619755D02*
D03*
X261755Y536000D02*
D03*
X253755D02*
D03*
X245755D02*
D03*
X237755D02*
D03*
X229755D02*
D03*
X221755D02*
D03*
X213755D02*
D03*
X205755D02*
D03*
X675755D02*
D03*
X667755D02*
D03*
X659755D02*
D03*
X651755D02*
D03*
X643755D02*
D03*
X635755D02*
D03*
X627755D02*
D03*
X619755D02*
D03*
D70*
X42000Y269200D02*
X44800D01*
X61000Y253000D01*
X158755D01*
X28900Y130000D02*
X48129D01*
X16700Y142200D02*
X28900Y130000D01*
X16700Y116800D02*
X29500Y104000D01*
X48000D01*
X66000Y189000D02*
X154755D01*
X42000Y167600D02*
X44600D01*
X66000Y189000D01*
X42000Y142200D02*
X45121D01*
X49703Y146782D01*
X49782D02*
X76000Y173000D01*
X146755D01*
X49703Y146782D02*
X49782D01*
X47729Y155000D02*
X73729Y181000D01*
X29300Y155000D02*
X47729D01*
X73729Y181000D02*
X150755D01*
X93000Y149000D02*
X134755D01*
X48000Y104000D02*
X93000Y149000D01*
X85000Y157000D02*
X138755D01*
X44800Y116800D02*
X85000Y157000D01*
X42000Y116800D02*
X44800D01*
X44400Y91400D02*
X94000Y141000D01*
X42000Y91400D02*
X44400D01*
X94000Y141000D02*
X130755D01*
X48000Y78000D02*
X103000Y133000D01*
X30100Y78000D02*
X48000D01*
X103000Y133000D02*
X126755D01*
X308000Y27400D02*
Y45728D01*
X295900Y15300D02*
X308000Y27400D01*
X261755Y91973D02*
X308000Y45728D01*
X369800Y243800D02*
X372000D01*
X339000Y213000D02*
X369800Y243800D01*
X276755Y213000D02*
X339000D01*
X276755Y229000D02*
X329000D01*
X369200Y269200D02*
X372000D01*
X329000Y229000D02*
X369200Y269200D01*
X276755Y245000D02*
X320000D01*
X369600Y294600D02*
X372000D01*
X320000Y245000D02*
X369600Y294600D01*
X384500Y282000D02*
X397300Y269200D01*
X321471Y237000D02*
X366471Y282000D01*
X384500D01*
X385100Y256000D02*
X397300Y243800D01*
X330871Y221000D02*
X365871Y256000D01*
X385100D01*
X384700Y231000D02*
X397300Y218400D01*
X366271Y231000D02*
X384700D01*
X340271Y205000D02*
X366271Y231000D01*
X348000Y189000D02*
X365000Y206000D01*
X276755Y189000D02*
X348000D01*
X365000Y206000D02*
X384300D01*
X276755Y197000D02*
X348000D01*
X369400Y218400D02*
X372000D01*
X348000Y197000D02*
X369400Y218400D01*
X384300Y206000D02*
X397300Y193000D01*
X276755Y173000D02*
X358000D01*
X365000Y180000D02*
X384900D01*
X358000Y173000D02*
X365000Y180000D01*
X357000Y181000D02*
X369000Y193000D01*
X276755Y181000D02*
X357000D01*
X369000Y193000D02*
X372000D01*
X384900Y180000D02*
X397300Y167600D01*
X276755Y157000D02*
X359000D01*
X361000Y155000D01*
X384500D01*
X397300Y142200D01*
X367250Y130000D02*
X384100D01*
X356250Y141000D02*
X367250Y130000D01*
X384100D02*
X397300Y116800D01*
X258000Y28200D02*
Y46029D01*
X245100Y15300D02*
X258000Y28200D01*
X229755Y74274D02*
X258000Y46029D01*
X245755Y83674D02*
X283000Y46429D01*
X270500Y15300D02*
X283000Y27800D01*
Y46429D01*
X253755Y85245D02*
X295900Y43100D01*
X253755Y85245D02*
Y150000D01*
X295900Y40600D02*
Y43100D01*
X237755Y76245D02*
Y150000D01*
Y76245D02*
X270500Y43500D01*
Y40600D02*
Y43500D01*
X205755Y57245D02*
Y150000D01*
X219700Y40600D02*
Y43300D01*
X205755Y57245D02*
X219700Y43300D01*
X245100Y40600D02*
Y42900D01*
X221755Y66245D02*
Y150000D01*
Y66245D02*
X245100Y42900D01*
X16700Y91400D02*
X30100Y78000D01*
X48129Y130000D02*
X83129Y165000D01*
X16700Y167600D02*
X29300Y155000D01*
X65000Y197000D02*
X158755D01*
X48000Y180000D02*
X65000Y197000D01*
X20579Y180000D02*
X48000D01*
X18821Y181757D02*
X20579Y180000D01*
X18821Y181757D02*
Y190879D01*
X16700Y193000D02*
X18821Y190879D01*
X57121Y205000D02*
X158755D01*
X45121Y193000D02*
X57121Y205000D01*
X42000Y193000D02*
X45121D01*
X51000Y206000D02*
X58000Y213000D01*
X158755D01*
X29100Y206000D02*
X51000D01*
X16700Y218400D02*
X29100Y206000D01*
X54000Y229000D02*
X158755D01*
X29500Y231000D02*
X52000D01*
X54000Y229000D01*
X16700Y243800D02*
X29500Y231000D01*
X149755Y268000D02*
Y313745D01*
X118100Y345400D02*
X149755Y313745D01*
X105000Y340000D02*
Y357600D01*
X141755Y268000D02*
Y303245D01*
X105000Y340000D02*
X141755Y303245D01*
X105000Y357600D02*
X118100Y370700D01*
X130000Y357200D02*
X143500Y370700D01*
X130000Y341000D02*
Y357200D01*
Y341000D02*
X157755Y313245D01*
X165755Y268000D02*
Y322174D01*
X173755Y268000D02*
Y321245D01*
X143500Y344429D02*
Y345400D01*
X156000Y339000D02*
X173755Y321245D01*
X156000Y339000D02*
Y357800D01*
X143500Y344429D02*
X165755Y322174D01*
X156000Y357800D02*
X168900Y370700D01*
X181000Y357400D02*
X194300Y370700D01*
X181000Y340371D02*
X189755Y331616D01*
X181000Y340371D02*
Y357400D01*
X205800Y356800D02*
X219700Y370700D01*
X205800Y339950D02*
Y356800D01*
X205755Y268000D02*
Y339905D01*
X205800Y339950D01*
X221755Y330505D02*
X232000Y340750D01*
Y357600D02*
X245100Y370700D01*
X232000Y340750D02*
Y357600D01*
X237755Y321105D02*
X258000Y341350D01*
Y358200D02*
X270500Y370700D01*
X258000Y341350D02*
Y358200D01*
X283000Y357800D02*
X295900Y370700D01*
X283000Y340950D02*
Y357800D01*
X253755Y311705D02*
X283000Y340950D01*
X261755Y268000D02*
Y311255D01*
X295900Y345400D01*
X253755Y268000D02*
Y311705D01*
X245755Y320655D02*
X270500Y345400D01*
X245755Y268000D02*
Y320655D01*
X237755Y268000D02*
Y321105D01*
X229755Y330055D02*
X245100Y345400D01*
X229755Y268000D02*
Y330055D01*
X221755Y268000D02*
Y330505D01*
X219700Y342279D02*
Y345400D01*
X213755Y268000D02*
Y336334D01*
X219700Y342279D01*
X197005Y268750D02*
Y342695D01*
Y268750D02*
X197755Y268000D01*
X194300Y345400D02*
X197005Y342695D01*
X189755Y268000D02*
Y331616D01*
X168900Y345400D02*
X181755Y332545D01*
Y268000D02*
Y332545D01*
X157755Y268000D02*
Y313245D01*
X45121Y243800D02*
X51921Y237000D01*
X42000Y243800D02*
X45121D01*
X51921Y237000D02*
X158755D01*
X43850Y220250D02*
X158005D01*
X42000Y218400D02*
X43850Y220250D01*
X158005D02*
X158755Y221000D01*
X83129Y165000D02*
X142755D01*
X118100Y40600D02*
Y43100D01*
X143500Y53100D02*
X157755Y67355D01*
Y126000D01*
X149755Y67684D02*
Y122000D01*
X131000Y48929D02*
X149755Y67684D01*
X131000Y28200D02*
Y48929D01*
X141755Y66755D02*
Y118000D01*
X118100Y43100D02*
X141755Y66755D01*
X143500Y40600D02*
Y53100D01*
X156000Y51000D02*
X165755Y60755D01*
X156000Y27800D02*
Y51000D01*
X143500Y15300D02*
X156000Y27800D01*
X165755Y60755D02*
Y130000D01*
X118100Y15300D02*
X131000Y28200D01*
X168900Y43856D02*
X173755Y48711D01*
X168900Y40600D02*
Y43856D01*
X173755Y48711D02*
Y134000D01*
X168900Y15300D02*
X181755Y28155D01*
Y138000D01*
X194300Y40600D02*
Y43856D01*
X189755Y48401D02*
Y142000D01*
Y48401D02*
X194300Y43856D01*
X197755Y55474D02*
Y146000D01*
Y55474D02*
X205800Y47429D01*
X194300Y15300D02*
X205800Y26800D01*
Y47429D01*
X219700Y15300D02*
X231200Y26800D01*
Y47429D01*
X213755Y64874D02*
X231200Y47429D01*
X213755Y64874D02*
Y150000D01*
X229755Y74274D02*
Y150000D01*
X245755Y83674D02*
Y150000D01*
X261755Y91973D02*
Y150000D01*
X306000Y253000D02*
X359100Y306100D01*
X276755Y253000D02*
X306000D01*
X359100Y306100D02*
X385800D01*
X276755Y133000D02*
X355800D01*
X372000Y116800D01*
X276755Y141000D02*
X356250D01*
X362079Y149000D02*
X368879Y142200D01*
X372000D01*
X276755Y149000D02*
X362079D01*
X370150Y165750D02*
X372000Y167600D01*
X276755Y165000D02*
X277505Y165750D01*
X370150D01*
X276755Y205000D02*
X340271D01*
X276755Y221000D02*
X330871D01*
X276755Y237000D02*
X321471D01*
X385800Y306100D02*
X397300Y294600D01*
X456000Y269200D02*
X458800D01*
X475000Y253000D01*
X572755D01*
X442900Y130000D02*
X462129D01*
X430700Y142200D02*
X442900Y130000D01*
X430700Y116800D02*
X443500Y104000D01*
X462000D01*
X480000Y189000D02*
X568755D01*
X456000Y167600D02*
X458600D01*
X480000Y189000D01*
X456000Y142200D02*
X459121D01*
X463703Y146782D01*
X463782D02*
X490000Y173000D01*
X560755D01*
X463703Y146782D02*
X463782D01*
X461729Y155000D02*
X487729Y181000D01*
X443300Y155000D02*
X461729D01*
X487729Y181000D02*
X564755D01*
X507000Y149000D02*
X548755D01*
X462000Y104000D02*
X507000Y149000D01*
X499000Y157000D02*
X552755D01*
X458800Y116800D02*
X499000Y157000D01*
X456000Y116800D02*
X458800D01*
X458400Y91400D02*
X508000Y141000D01*
X456000Y91400D02*
X458400D01*
X508000Y141000D02*
X544755D01*
X462000Y78000D02*
X517000Y133000D01*
X444100Y78000D02*
X462000D01*
X517000Y133000D02*
X540755D01*
X722000Y27400D02*
Y45728D01*
X709900Y15300D02*
X722000Y27400D01*
X675755Y91973D02*
X722000Y45728D01*
X783800Y243800D02*
X786000D01*
X753000Y213000D02*
X783800Y243800D01*
X690755Y213000D02*
X753000D01*
X690755Y229000D02*
X743000D01*
X783200Y269200D02*
X786000D01*
X743000Y229000D02*
X783200Y269200D01*
X690755Y245000D02*
X734000D01*
X783600Y294600D02*
X786000D01*
X734000Y245000D02*
X783600Y294600D01*
X798500Y282000D02*
X811300Y269200D01*
X735471Y237000D02*
X780471Y282000D01*
X798500D01*
X799100Y256000D02*
X811300Y243800D01*
X744871Y221000D02*
X779871Y256000D01*
X799100D01*
X798700Y231000D02*
X811300Y218400D01*
X780271Y231000D02*
X798700D01*
X754271Y205000D02*
X780271Y231000D01*
X762000Y189000D02*
X779000Y206000D01*
X690755Y189000D02*
X762000D01*
X779000Y206000D02*
X798300D01*
X690755Y197000D02*
X762000D01*
X783400Y218400D02*
X786000D01*
X762000Y197000D02*
X783400Y218400D01*
X798300Y206000D02*
X811300Y193000D01*
X690755Y173000D02*
X772000D01*
X779000Y180000D02*
X798900D01*
X772000Y173000D02*
X779000Y180000D01*
X771000Y181000D02*
X783000Y193000D01*
X690755Y181000D02*
X771000D01*
X783000Y193000D02*
X786000D01*
X798900Y180000D02*
X811300Y167600D01*
X690755Y157000D02*
X773000D01*
X775000Y155000D01*
X798500D01*
X811300Y142200D01*
X781250Y130000D02*
X798100D01*
X770250Y141000D02*
X781250Y130000D01*
X798100D02*
X811300Y116800D01*
X672000Y28200D02*
Y46029D01*
X659100Y15300D02*
X672000Y28200D01*
X643755Y74274D02*
X672000Y46029D01*
X659755Y83674D02*
X697000Y46429D01*
X684500Y15300D02*
X697000Y27800D01*
Y46429D01*
X667755Y85245D02*
X709900Y43100D01*
X667755Y85245D02*
Y150000D01*
X709900Y40600D02*
Y43100D01*
X651755Y76245D02*
Y150000D01*
Y76245D02*
X684500Y43500D01*
Y40600D02*
Y43500D01*
X619755Y57245D02*
Y150000D01*
X633700Y40600D02*
Y43300D01*
X619755Y57245D02*
X633700Y43300D01*
X659100Y40600D02*
Y42900D01*
X635755Y66245D02*
Y150000D01*
Y66245D02*
X659100Y42900D01*
X430700Y91400D02*
X444100Y78000D01*
X462129Y130000D02*
X497129Y165000D01*
X430700Y167600D02*
X443300Y155000D01*
X479000Y197000D02*
X572755D01*
X462000Y180000D02*
X479000Y197000D01*
X434579Y180000D02*
X462000D01*
X432821Y181757D02*
X434579Y180000D01*
X432821Y181757D02*
Y190879D01*
X430700Y193000D02*
X432821Y190879D01*
X471121Y205000D02*
X572755D01*
X459121Y193000D02*
X471121Y205000D01*
X456000Y193000D02*
X459121D01*
X465000Y206000D02*
X472000Y213000D01*
X572755D01*
X443100Y206000D02*
X465000D01*
X430700Y218400D02*
X443100Y206000D01*
X468000Y229000D02*
X572755D01*
X443500Y231000D02*
X466000D01*
X468000Y229000D01*
X430700Y243800D02*
X443500Y231000D01*
X563755Y268000D02*
Y313745D01*
X532100Y345400D02*
X563755Y313745D01*
X519000Y340000D02*
Y357600D01*
X555755Y268000D02*
Y303245D01*
X519000Y340000D02*
X555755Y303245D01*
X519000Y357600D02*
X532100Y370700D01*
X544000Y357200D02*
X557500Y370700D01*
X544000Y341000D02*
Y357200D01*
Y341000D02*
X571755Y313245D01*
X579755Y268000D02*
Y322174D01*
X587755Y268000D02*
Y321245D01*
X557500Y344429D02*
Y345400D01*
X570000Y339000D02*
X587755Y321245D01*
X570000Y339000D02*
Y357800D01*
X557500Y344429D02*
X579755Y322174D01*
X570000Y357800D02*
X582900Y370700D01*
X595000Y357400D02*
X608300Y370700D01*
X595000Y340371D02*
X603755Y331616D01*
X595000Y340371D02*
Y357400D01*
X619800Y356800D02*
X633700Y370700D01*
X619800Y339950D02*
Y356800D01*
X619755Y268000D02*
Y339905D01*
X619800Y339950D01*
X635755Y330505D02*
X646000Y340750D01*
Y357600D02*
X659100Y370700D01*
X646000Y340750D02*
Y357600D01*
X651755Y321105D02*
X672000Y341350D01*
Y358200D02*
X684500Y370700D01*
X672000Y341350D02*
Y358200D01*
X697000Y357800D02*
X709900Y370700D01*
X697000Y340950D02*
Y357800D01*
X667755Y311705D02*
X697000Y340950D01*
X675755Y268000D02*
Y311255D01*
X709900Y345400D01*
X667755Y268000D02*
Y311705D01*
X659755Y320655D02*
X684500Y345400D01*
X659755Y268000D02*
Y320655D01*
X651755Y268000D02*
Y321105D01*
X643755Y330055D02*
X659100Y345400D01*
X643755Y268000D02*
Y330055D01*
X635755Y268000D02*
Y330505D01*
X633700Y342279D02*
Y345400D01*
X627755Y268000D02*
Y336334D01*
X633700Y342279D01*
X611005Y268750D02*
Y342695D01*
Y268750D02*
X611755Y268000D01*
X608300Y345400D02*
X611005Y342695D01*
X603755Y268000D02*
Y331616D01*
X582900Y345400D02*
X595755Y332545D01*
Y268000D02*
Y332545D01*
X571755Y268000D02*
Y313245D01*
X459121Y243800D02*
X465921Y237000D01*
X456000Y243800D02*
X459121D01*
X465921Y237000D02*
X572755D01*
X457850Y220250D02*
X572005D01*
X456000Y218400D02*
X457850Y220250D01*
X572005D02*
X572755Y221000D01*
X497129Y165000D02*
X556755D01*
X532100Y40600D02*
Y43100D01*
X557500Y53100D02*
X571755Y67355D01*
Y126000D01*
X563755Y67684D02*
Y122000D01*
X545000Y48929D02*
X563755Y67684D01*
X545000Y28200D02*
Y48929D01*
X555755Y66755D02*
Y118000D01*
X532100Y43100D02*
X555755Y66755D01*
X557500Y40600D02*
Y53100D01*
X570000Y51000D02*
X579755Y60755D01*
X570000Y27800D02*
Y51000D01*
X557500Y15300D02*
X570000Y27800D01*
X579755Y60755D02*
Y130000D01*
X532100Y15300D02*
X545000Y28200D01*
X582900Y43856D02*
X587755Y48711D01*
X582900Y40600D02*
Y43856D01*
X587755Y48711D02*
Y134000D01*
X582900Y15300D02*
X595755Y28155D01*
Y138000D01*
X608300Y40600D02*
Y43856D01*
X603755Y48401D02*
Y142000D01*
Y48401D02*
X608300Y43856D01*
X611755Y55474D02*
Y146000D01*
Y55474D02*
X619800Y47429D01*
X608300Y15300D02*
X619800Y26800D01*
Y47429D01*
X633700Y15300D02*
X645200Y26800D01*
Y47429D01*
X627755Y64874D02*
X645200Y47429D01*
X627755Y64874D02*
Y150000D01*
X643755Y74274D02*
Y150000D01*
X659755Y83674D02*
Y150000D01*
X675755Y91973D02*
Y150000D01*
X720000Y253000D02*
X773100Y306100D01*
X690755Y253000D02*
X720000D01*
X773100Y306100D02*
X799800D01*
X690755Y133000D02*
X769800D01*
X786000Y116800D01*
X690755Y141000D02*
X770250D01*
X776079Y149000D02*
X782879Y142200D01*
X786000D01*
X690755Y149000D02*
X776079D01*
X784150Y165750D02*
X786000Y167600D01*
X690755Y165000D02*
X691505Y165750D01*
X784150D01*
X690755Y205000D02*
X754271D01*
X690755Y221000D02*
X744871D01*
X690755Y237000D02*
X735471D01*
X799800Y306100D02*
X811300Y294600D01*
X42000Y655200D02*
X44800D01*
X61000Y639000D01*
X158755D01*
X28900Y516000D02*
X48129D01*
X16700Y528200D02*
X28900Y516000D01*
X16700Y502800D02*
X29500Y490000D01*
X48000D01*
X66000Y575000D02*
X154755D01*
X42000Y553600D02*
X44600D01*
X66000Y575000D01*
X42000Y528200D02*
X45121D01*
X49703Y532782D01*
X49782D02*
X76000Y559000D01*
X146755D01*
X49703Y532782D02*
X49782D01*
X47729Y541000D02*
X73729Y567000D01*
X29300Y541000D02*
X47729D01*
X73729Y567000D02*
X150755D01*
X93000Y535000D02*
X134755D01*
X48000Y490000D02*
X93000Y535000D01*
X85000Y543000D02*
X138755D01*
X44800Y502800D02*
X85000Y543000D01*
X42000Y502800D02*
X44800D01*
X44400Y477400D02*
X94000Y527000D01*
X42000Y477400D02*
X44400D01*
X94000Y527000D02*
X130755D01*
X48000Y464000D02*
X103000Y519000D01*
X30100Y464000D02*
X48000D01*
X103000Y519000D02*
X126755D01*
X308000Y413400D02*
Y431727D01*
X295900Y401300D02*
X308000Y413400D01*
X261755Y477973D02*
X308000Y431727D01*
X369800Y629800D02*
X372000D01*
X339000Y599000D02*
X369800Y629800D01*
X276755Y599000D02*
X339000D01*
X276755Y615000D02*
X329000D01*
X369200Y655200D02*
X372000D01*
X329000Y615000D02*
X369200Y655200D01*
X276755Y631000D02*
X320000D01*
X369600Y680600D02*
X372000D01*
X320000Y631000D02*
X369600Y680600D01*
X384500Y668000D02*
X397300Y655200D01*
X321471Y623000D02*
X366471Y668000D01*
X384500D01*
X385100Y642000D02*
X397300Y629800D01*
X330871Y607000D02*
X365871Y642000D01*
X385100D01*
X384700Y617000D02*
X397300Y604400D01*
X366271Y617000D02*
X384700D01*
X340271Y591000D02*
X366271Y617000D01*
X348000Y575000D02*
X365000Y592000D01*
X276755Y575000D02*
X348000D01*
X365000Y592000D02*
X384300D01*
X276755Y583000D02*
X348000D01*
X369400Y604400D02*
X372000D01*
X348000Y583000D02*
X369400Y604400D01*
X384300Y592000D02*
X397300Y579000D01*
X276755Y559000D02*
X358000D01*
X365000Y566000D02*
X384900D01*
X358000Y559000D02*
X365000Y566000D01*
X357000Y567000D02*
X369000Y579000D01*
X276755Y567000D02*
X357000D01*
X369000Y579000D02*
X372000D01*
X384900Y566000D02*
X397300Y553600D01*
X276755Y543000D02*
X359000D01*
X361000Y541000D01*
X384500D01*
X397300Y528200D01*
X367250Y516000D02*
X384100D01*
X356250Y527000D02*
X367250Y516000D01*
X384100D02*
X397300Y502800D01*
X258000Y414200D02*
Y432029D01*
X245100Y401300D02*
X258000Y414200D01*
X229755Y460274D02*
X258000Y432029D01*
X245755Y469674D02*
X283000Y432429D01*
X270500Y401300D02*
X283000Y413800D01*
Y432429D01*
X253755Y471245D02*
X295900Y429100D01*
X253755Y471245D02*
Y536000D01*
X295900Y426600D02*
Y429100D01*
X237755Y462245D02*
Y536000D01*
Y462245D02*
X270500Y429500D01*
Y426600D02*
Y429500D01*
X205755Y443245D02*
Y536000D01*
X219700Y426600D02*
Y429300D01*
X205755Y443245D02*
X219700Y429300D01*
X245100Y426600D02*
Y428900D01*
X221755Y452245D02*
Y536000D01*
Y452245D02*
X245100Y428900D01*
X16700Y477400D02*
X30100Y464000D01*
X48129Y516000D02*
X83129Y551000D01*
X16700Y553600D02*
X29300Y541000D01*
X65000Y583000D02*
X158755D01*
X48000Y566000D02*
X65000Y583000D01*
X20579Y566000D02*
X48000D01*
X18821Y567757D02*
X20579Y566000D01*
X18821Y567757D02*
Y576879D01*
X16700Y579000D02*
X18821Y576879D01*
X57121Y591000D02*
X158755D01*
X45121Y579000D02*
X57121Y591000D01*
X42000Y579000D02*
X45121D01*
X51000Y592000D02*
X58000Y599000D01*
X158755D01*
X29100Y592000D02*
X51000D01*
X16700Y604400D02*
X29100Y592000D01*
X54000Y615000D02*
X158755D01*
X29500Y617000D02*
X52000D01*
X54000Y615000D01*
X16700Y629800D02*
X29500Y617000D01*
X149755Y654000D02*
Y699745D01*
X118100Y731400D02*
X149755Y699745D01*
X105000Y726000D02*
Y743600D01*
X141755Y654000D02*
Y689245D01*
X105000Y726000D02*
X141755Y689245D01*
X105000Y743600D02*
X118100Y756700D01*
X130000Y743200D02*
X143500Y756700D01*
X130000Y727000D02*
Y743200D01*
Y727000D02*
X157755Y699245D01*
X165755Y654000D02*
Y708174D01*
X173755Y654000D02*
Y707245D01*
X143500Y730429D02*
Y731400D01*
X156000Y725000D02*
X173755Y707245D01*
X156000Y725000D02*
Y743800D01*
X143500Y730429D02*
X165755Y708174D01*
X156000Y743800D02*
X168900Y756700D01*
X181000Y743400D02*
X194300Y756700D01*
X181000Y726371D02*
X189755Y717616D01*
X181000Y726371D02*
Y743400D01*
X205800Y742800D02*
X219700Y756700D01*
X205800Y725950D02*
Y742800D01*
X205755Y654000D02*
Y725905D01*
X205800Y725950D01*
X221755Y716505D02*
X232000Y726750D01*
Y743600D02*
X245100Y756700D01*
X232000Y726750D02*
Y743600D01*
X237755Y707105D02*
X258000Y727350D01*
Y744200D02*
X270500Y756700D01*
X258000Y727350D02*
Y744200D01*
X283000Y743800D02*
X295900Y756700D01*
X283000Y726950D02*
Y743800D01*
X253755Y697705D02*
X283000Y726950D01*
X261755Y654000D02*
Y697255D01*
X295900Y731400D01*
X253755Y654000D02*
Y697705D01*
X245755Y706655D02*
X270500Y731400D01*
X245755Y654000D02*
Y706655D01*
X237755Y654000D02*
Y707105D01*
X229755Y716055D02*
X245100Y731400D01*
X229755Y654000D02*
Y716055D01*
X221755Y654000D02*
Y716505D01*
X219700Y728279D02*
Y731400D01*
X213755Y654000D02*
Y722334D01*
X219700Y728279D01*
X197005Y654750D02*
Y728695D01*
Y654750D02*
X197755Y654000D01*
X194300Y731400D02*
X197005Y728695D01*
X189755Y654000D02*
Y717616D01*
X168900Y731400D02*
X181755Y718545D01*
Y654000D02*
Y718545D01*
X157755Y654000D02*
Y699245D01*
X45121Y629800D02*
X51921Y623000D01*
X42000Y629800D02*
X45121D01*
X51921Y623000D02*
X158755D01*
X43850Y606250D02*
X158005D01*
X42000Y604400D02*
X43850Y606250D01*
X158005D02*
X158755Y607000D01*
X83129Y551000D02*
X142755D01*
X118100Y426600D02*
Y429100D01*
X143500Y439100D02*
X157755Y453355D01*
Y512000D01*
X149755Y453684D02*
Y508000D01*
X131000Y434929D02*
X149755Y453684D01*
X131000Y414200D02*
Y434929D01*
X141755Y452755D02*
Y504000D01*
X118100Y429100D02*
X141755Y452755D01*
X143500Y426600D02*
Y439100D01*
X156000Y437000D02*
X165755Y446755D01*
X156000Y413800D02*
Y437000D01*
X143500Y401300D02*
X156000Y413800D01*
X165755Y446755D02*
Y516000D01*
X118100Y401300D02*
X131000Y414200D01*
X168900Y429856D02*
X173755Y434711D01*
X168900Y426600D02*
Y429856D01*
X173755Y434711D02*
Y520000D01*
X168900Y401300D02*
X181755Y414155D01*
Y524000D01*
X194300Y426600D02*
Y429856D01*
X189755Y434401D02*
Y528000D01*
Y434401D02*
X194300Y429856D01*
X197755Y441474D02*
Y532000D01*
Y441474D02*
X205800Y433429D01*
X194300Y401300D02*
X205800Y412800D01*
Y433429D01*
X219700Y401300D02*
X231200Y412800D01*
Y433429D01*
X213755Y450874D02*
X231200Y433429D01*
X213755Y450874D02*
Y536000D01*
X229755Y460274D02*
Y536000D01*
X245755Y469674D02*
Y536000D01*
X261755Y477973D02*
Y536000D01*
X306000Y639000D02*
X359100Y692100D01*
X276755Y639000D02*
X306000D01*
X359100Y692100D02*
X385800D01*
X276755Y519000D02*
X355800D01*
X372000Y502800D01*
X276755Y527000D02*
X356250D01*
X362079Y535000D02*
X368879Y528200D01*
X372000D01*
X276755Y535000D02*
X362079D01*
X370150Y551750D02*
X372000Y553600D01*
X276755Y551000D02*
X277505Y551750D01*
X370150D01*
X276755Y591000D02*
X340271D01*
X276755Y607000D02*
X330871D01*
X276755Y623000D02*
X321471D01*
X385800Y692100D02*
X397300Y680600D01*
X456000Y655200D02*
X458800D01*
X475000Y639000D01*
X572755D01*
X442900Y516000D02*
X462129D01*
X430700Y528200D02*
X442900Y516000D01*
X430700Y502800D02*
X443500Y490000D01*
X462000D01*
X480000Y575000D02*
X568755D01*
X456000Y553600D02*
X458600D01*
X480000Y575000D01*
X456000Y528200D02*
X459121D01*
X463703Y532782D01*
X463782D02*
X490000Y559000D01*
X560755D01*
X463703Y532782D02*
X463782D01*
X461729Y541000D02*
X487729Y567000D01*
X443300Y541000D02*
X461729D01*
X487729Y567000D02*
X564755D01*
X507000Y535000D02*
X548755D01*
X462000Y490000D02*
X507000Y535000D01*
X499000Y543000D02*
X552755D01*
X458800Y502800D02*
X499000Y543000D01*
X456000Y502800D02*
X458800D01*
X458400Y477400D02*
X508000Y527000D01*
X456000Y477400D02*
X458400D01*
X508000Y527000D02*
X544755D01*
X462000Y464000D02*
X517000Y519000D01*
X444100Y464000D02*
X462000D01*
X517000Y519000D02*
X540755D01*
X722000Y413400D02*
Y431727D01*
X709900Y401300D02*
X722000Y413400D01*
X675755Y477973D02*
X722000Y431727D01*
X783800Y629800D02*
X786000D01*
X753000Y599000D02*
X783800Y629800D01*
X690755Y599000D02*
X753000D01*
X690755Y615000D02*
X743000D01*
X783200Y655200D02*
X786000D01*
X743000Y615000D02*
X783200Y655200D01*
X690755Y631000D02*
X734000D01*
X783600Y680600D02*
X786000D01*
X734000Y631000D02*
X783600Y680600D01*
X798500Y668000D02*
X811300Y655200D01*
X735471Y623000D02*
X780471Y668000D01*
X798500D01*
X799100Y642000D02*
X811300Y629800D01*
X744871Y607000D02*
X779871Y642000D01*
X799100D01*
X798700Y617000D02*
X811300Y604400D01*
X780271Y617000D02*
X798700D01*
X754271Y591000D02*
X780271Y617000D01*
X762000Y575000D02*
X779000Y592000D01*
X690755Y575000D02*
X762000D01*
X779000Y592000D02*
X798300D01*
X690755Y583000D02*
X762000D01*
X783400Y604400D02*
X786000D01*
X762000Y583000D02*
X783400Y604400D01*
X798300Y592000D02*
X811300Y579000D01*
X690755Y559000D02*
X772000D01*
X779000Y566000D02*
X798900D01*
X772000Y559000D02*
X779000Y566000D01*
X771000Y567000D02*
X783000Y579000D01*
X690755Y567000D02*
X771000D01*
X783000Y579000D02*
X786000D01*
X798900Y566000D02*
X811300Y553600D01*
X690755Y543000D02*
X773000D01*
X775000Y541000D01*
X798500D01*
X811300Y528200D01*
X781250Y516000D02*
X798100D01*
X770250Y527000D02*
X781250Y516000D01*
X798100D02*
X811300Y502800D01*
X672000Y414200D02*
Y432029D01*
X659100Y401300D02*
X672000Y414200D01*
X643755Y460274D02*
X672000Y432029D01*
X659755Y469674D02*
X697000Y432429D01*
X684500Y401300D02*
X697000Y413800D01*
Y432429D01*
X667755Y471245D02*
X709900Y429100D01*
X667755Y471245D02*
Y536000D01*
X709900Y426600D02*
Y429100D01*
X651755Y462245D02*
Y536000D01*
Y462245D02*
X684500Y429500D01*
Y426600D02*
Y429500D01*
X619755Y443245D02*
Y536000D01*
X633700Y426600D02*
Y429300D01*
X619755Y443245D02*
X633700Y429300D01*
X659100Y426600D02*
Y428900D01*
X635755Y452245D02*
Y536000D01*
Y452245D02*
X659100Y428900D01*
X430700Y477400D02*
X444100Y464000D01*
X462129Y516000D02*
X497129Y551000D01*
X430700Y553600D02*
X443300Y541000D01*
X479000Y583000D02*
X572755D01*
X462000Y566000D02*
X479000Y583000D01*
X434579Y566000D02*
X462000D01*
X432821Y567757D02*
X434579Y566000D01*
X432821Y567757D02*
Y576879D01*
X430700Y579000D02*
X432821Y576879D01*
X471121Y591000D02*
X572755D01*
X459121Y579000D02*
X471121Y591000D01*
X456000Y579000D02*
X459121D01*
X465000Y592000D02*
X472000Y599000D01*
X572755D01*
X443100Y592000D02*
X465000D01*
X430700Y604400D02*
X443100Y592000D01*
X468000Y615000D02*
X572755D01*
X443500Y617000D02*
X466000D01*
X468000Y615000D01*
X430700Y629800D02*
X443500Y617000D01*
X563755Y654000D02*
Y699745D01*
X532100Y731400D02*
X563755Y699745D01*
X519000Y726000D02*
Y743600D01*
X555755Y654000D02*
Y689245D01*
X519000Y726000D02*
X555755Y689245D01*
X519000Y743600D02*
X532100Y756700D01*
X544000Y743200D02*
X557500Y756700D01*
X544000Y727000D02*
Y743200D01*
Y727000D02*
X571755Y699245D01*
X579755Y654000D02*
Y708174D01*
X587755Y654000D02*
Y707245D01*
X557500Y730429D02*
Y731400D01*
X570000Y725000D02*
X587755Y707245D01*
X570000Y725000D02*
Y743800D01*
X557500Y730429D02*
X579755Y708174D01*
X570000Y743800D02*
X582900Y756700D01*
X595000Y743400D02*
X608300Y756700D01*
X595000Y726371D02*
X603755Y717616D01*
X595000Y726371D02*
Y743400D01*
X619800Y742800D02*
X633700Y756700D01*
X619800Y725950D02*
Y742800D01*
X619755Y654000D02*
Y725905D01*
X619800Y725950D01*
X635755Y716505D02*
X646000Y726750D01*
Y743600D02*
X659100Y756700D01*
X646000Y726750D02*
Y743600D01*
X651755Y707105D02*
X672000Y727350D01*
Y744200D02*
X684500Y756700D01*
X672000Y727350D02*
Y744200D01*
X697000Y743800D02*
X709900Y756700D01*
X697000Y726950D02*
Y743800D01*
X667755Y697705D02*
X697000Y726950D01*
X675755Y654000D02*
Y697255D01*
X709900Y731400D01*
X667755Y654000D02*
Y697705D01*
X659755Y706655D02*
X684500Y731400D01*
X659755Y654000D02*
Y706655D01*
X651755Y654000D02*
Y707105D01*
X643755Y716055D02*
X659100Y731400D01*
X643755Y654000D02*
Y716055D01*
X635755Y654000D02*
Y716505D01*
X633700Y728279D02*
Y731400D01*
X627755Y654000D02*
Y722334D01*
X633700Y728279D01*
X611005Y654750D02*
Y728695D01*
Y654750D02*
X611755Y654000D01*
X608300Y731400D02*
X611005Y728695D01*
X603755Y654000D02*
Y717616D01*
X582900Y731400D02*
X595755Y718545D01*
Y654000D02*
Y718545D01*
X571755Y654000D02*
Y699245D01*
X459121Y629800D02*
X465921Y623000D01*
X456000Y629800D02*
X459121D01*
X465921Y623000D02*
X572755D01*
X457850Y606250D02*
X572005D01*
X456000Y604400D02*
X457850Y606250D01*
X572005D02*
X572755Y607000D01*
X497129Y551000D02*
X556755D01*
X532100Y426600D02*
Y429100D01*
X557500Y439100D02*
X571755Y453355D01*
Y512000D01*
X563755Y453684D02*
Y508000D01*
X545000Y434929D02*
X563755Y453684D01*
X545000Y414200D02*
Y434929D01*
X555755Y452755D02*
Y504000D01*
X532100Y429100D02*
X555755Y452755D01*
X557500Y426600D02*
Y439100D01*
X570000Y437000D02*
X579755Y446755D01*
X570000Y413800D02*
Y437000D01*
X557500Y401300D02*
X570000Y413800D01*
X579755Y446755D02*
Y516000D01*
X532100Y401300D02*
X545000Y414200D01*
X582900Y429856D02*
X587755Y434711D01*
X582900Y426600D02*
Y429856D01*
X587755Y434711D02*
Y520000D01*
X582900Y401300D02*
X595755Y414155D01*
Y524000D01*
X608300Y426600D02*
Y429856D01*
X603755Y434401D02*
Y528000D01*
Y434401D02*
X608300Y429856D01*
X611755Y441474D02*
Y532000D01*
Y441474D02*
X619800Y433429D01*
X608300Y401300D02*
X619800Y412800D01*
Y433429D01*
X633700Y401300D02*
X645200Y412800D01*
Y433429D01*
X627755Y450874D02*
X645200Y433429D01*
X627755Y450874D02*
Y536000D01*
X643755Y460274D02*
Y536000D01*
X659755Y469674D02*
Y536000D01*
X675755Y477973D02*
Y536000D01*
X720000Y639000D02*
X773100Y692100D01*
X690755Y639000D02*
X720000D01*
X773100Y692100D02*
X799800D01*
X690755Y519000D02*
X769800D01*
X786000Y502800D01*
X690755Y527000D02*
X770250D01*
X776079Y535000D02*
X782879Y528200D01*
X786000D01*
X690755Y535000D02*
X776079D01*
X784150Y551750D02*
X786000Y553600D01*
X690755Y551000D02*
X691505Y551750D01*
X784150D01*
X690755Y591000D02*
X754271D01*
X690755Y607000D02*
X744871D01*
X690755Y623000D02*
X735471D01*
X799800Y692100D02*
X811300Y680600D01*
M02*
