M48
;Layer_Color=9474304
;FILE_FORMAT=2:5
INCH,LZ
;TYPE=PLATED
T1F00S00C0.03937
%
T01
X0259488Y0006024
Y0015984
X0269488
Y0006024
X0279488Y0006024
X0279488Y0015984
X0289488
Y0006024
X0299488
Y0015984
X0309488
Y0006024
X0319488
Y0015984
X0249488
Y0006024
X0239488Y0006024
X0239488Y0015984
X0229488
Y0006024
X0219488
Y0015984
X0209488
Y0006024
X0199488
Y0015984
X0189488
X0189488Y0006024
X0179488Y0006024
Y0015984
X0169488
Y0006024
X0156496
Y0015984
X0146496
Y0006024
X0136496
Y0015984
X0126496
Y0006024
X0116496Y0006024
X0116496Y0015984
X0106496
Y0006024
X0096496
Y0015984
X0086496
Y0006024
X0076496Y0006024
X0076496Y0015984
X0066496
Y0006024
X0056496
Y0015984
X0046496
Y0006024
X0036496
Y0015984
X0026496
X0026496Y0006024
X0016496Y0006024
Y0015984
X0006496
Y0006024
X0006575Y0035984
X0016535
Y0045984
X0006575Y0045984
X0006575Y0055984
X0016535
Y0065984
X0006575
X0006575Y0075984
X0016535Y0075984
Y0085984
X0006575Y0085984
X0006575Y0095984
X0016535
Y0105984
X0006575
X0006575Y0115984
X0016535Y0115984
X0016496Y0135984
Y0145945
X0026496
Y0135984
X0036496Y0135984
X0036496Y0145945
X0046496
Y0135984
X0056496
Y0145945
X0066496
Y0135984
X0076496Y0135984
X0076496Y0145945
X0086496
Y0135984
X0096496
Y0145945
X0096496Y0157992
Y0167953
X0086496
Y0157992
X0076496Y0157992
X0076496Y0167953
X0066496
Y0157992
X0056496
Y0167953
X0046496
Y0157992
X0036496
Y0167953
X0026496
X0026496Y0157992
X0016496Y0157992
Y0167953
X0006496
Y0157992
X0006496Y0145945
Y0135984
X0106496
Y0145945
X0116496
Y0135984
X0126496Y0135984
X0126496Y0145945
X0136496
Y0135984
X0146496
Y0145945
X0156496
Y0135984
X0169488
Y0145945
X0179488
Y0135984
X0189488
Y0145945
X0199488
X0199488Y0135984
X0209488Y0135984
Y0145945
X0219488
Y0135984
X0229488
Y0145945
X0239488
X0239488Y0135984
X0249488Y0135984
Y0145945
X0249488Y0157992
Y0167953
X0239488
X0239488Y0157992
X0229488Y0157992
Y0167953
X0219488
Y0157992
X0209488
Y0167953
X0199488
Y0157992
X0189488Y0157992
X0189488Y0167953
X0179488
Y0157992
X0169488
Y0167953
X0156496
Y0157992
X0146496
Y0167953
X0136496
Y0157992
X0126496
Y0167953
X0116496
X0116496Y0157992
X0106496Y0157992
Y0167953
X0146457Y0115984
X0156417
Y0105984
X0146457
Y0095984
X0156417
Y0085984
X0146457
Y0075984
X0156417
Y0065984
X0146457
Y0055984
X0156417
Y0045984
X0146457
Y0035984
X0156417
X0169567
X0179528
Y0045984
X0169567Y0045984
X0169567Y0055984
X0179528
Y0065984
X0169567
X0169567Y0075984
X0179528Y0075984
Y0085984
X0169567Y0085984
X0169567Y0095984
X0179528
Y0105984
X0169567
X0169567Y0115984
X0179528Y0115984
X0259488Y0135984
Y0145945
X0269488
Y0135984
X0279488
Y0145945
X0289488
X0289488Y0135984
X0299488Y0135984
Y0145945
X0309488
Y0135984
X0319488
Y0145945
X0319488Y0157992
Y0167953
X0309488
Y0157992
X0299488
Y0167953
X0289488
Y0157992
X0279488Y0157992
X0279488Y0167953
X0269488
Y0157992
X0259488
Y0167953
X0309449Y0115984
X0319409
Y0105984
X0309449
Y0095984
X0319409
Y0085984
X0309449
Y0075984
X0319409
Y0065984
X0309449
Y0055984
X0319409
Y0045984
X0309449
Y0035984
X0319409
Y0187953
X0309449
Y0197953
X0319409
Y0207953
X0309449
Y0217953
X0319409
Y0227953
X0309449
Y0237953
X0319409
Y0247953
X0309449
Y0257953
X0319409
Y0267953
X0309449
X0309488Y0287953
Y0297913
X0319488
Y0287953
X0299488
Y0297913
X0289488
X0289488Y0287953
X0279488Y0287953
Y0297913
X0269488
Y0287953
X0259488
Y0297913
X0249488
Y0287953
X0239488Y0287953
X0239488Y0297913
X0229488
Y0287953
X0219488
Y0297913
X0209488
Y0287953
X0199488Y0287953
X0199488Y0297913
X0189488
Y0287953
X0179488
Y0297913
X0169488
Y0287953
X0156496
Y0297913
X0146496
Y0287953
X0136496
Y0297913
X0126496
X0126496Y0287953
X0116496Y0287953
Y0297913
X0106496
Y0287953
X0146457Y0267953
X0156417
Y0257953
X0146457
Y0247953
X0156417
Y0237953
X0146457
Y0227953
X0156417
Y0217953
X0146457
Y0207953
X0156417
Y0197953
X0146457
Y0187953
X0156417
X0169567
X0179528
Y0197953
X0169567Y0197953
X0169567Y0207953
X0179528
Y0217953
X0169567
X0169567Y0227953
X0179528Y0227953
Y0237953
X0169567Y0237953
X0169567Y0247953
X0179528
Y0257953
X0169567
X0169567Y0267953
X0179528Y0267953
X0096496Y0287953
Y0297913
X0086496
Y0287953
X0076496Y0287953
X0076496Y0297913
X0066496
Y0287953
X0056496
Y0297913
X0046496
Y0287953
X0036496Y0287953
X0036496Y0297913
X0026496
Y0287953
X0016496
Y0297913
X0006496
Y0287953
X0006575Y0267953
X0016535Y0267953
Y0257953
X0006575
Y0247953
X0016535
Y0237953
X0006575Y0237953
Y0227953
X0016535Y0227953
Y0217953
X0006575
Y0207953
X0016535
Y0197953
X0006575Y0197953
X0006575Y0187953
X0016535
M30
